<?xml version="1.0" encoding="UTF-8" standalone="no"?>
<!-- Created with Inkscape (http://www.inkscape.org/) -->

<svg
   version="1.1"
   id="svg1"
   width="442.29333"
   height="182.64"
   viewBox="0 0 442.29333 182.64"
   sodipodi:docname="CLAW26.svg"
   inkscape:version="1.4.2 (ebf0e940d0, 2025-05-08)"
   xmlns:inkscape="http://www.inkscape.org/namespaces/inkscape"
   xmlns:sodipodi="http://sodipodi.sourceforge.net/DTD/sodipodi-0.dtd"
   xmlns="http://www.w3.org/2000/svg"
   xmlns:svg="http://www.w3.org/2000/svg">
  <defs
     id="defs1" />
  <sodipodi:namedview
     id="namedview1"
     pagecolor="#ffffff"
     bordercolor="#000000"
     borderopacity="0.25"
     inkscape:showpageshadow="2"
     inkscape:pageopacity="0.0"
     inkscape:pagecheckerboard="0"
     inkscape:deskcolor="#d1d1d1"
     inkscape:zoom="3.1893342"
     inkscape:cx="169.00079"
     inkscape:cy="106.44855"
     inkscape:window-width="3440"
     inkscape:window-height="1368"
     inkscape:window-x="0"
     inkscape:window-y="0"
     inkscape:window-maximized="1"
     inkscape:current-layer="g1">
    <inkscape:page
       x="0"
       y="0"
       inkscape:label="1"
       id="page1"
       width="442.29333"
       height="182.64"
       margin="0"
       bleed="0" />
  </sodipodi:namedview>
  <g
     id="g1"
     inkscape:groupmode="layer"
     inkscape:label="1">
    <g
       id="claw-26-logo">
      <path
         id="path2"
         d="m 3222.02,641.66 c 0,120.449 -186.18,229.149 -484.94,306.168 l 16.53,336.732 h -162.47 l -30.71,-297.419 c -47.07,9.007 -96.09,17.319 -146.81,24.899 l -31.09,271.66 -168.11,0.86 18.82,-249.48 c -177.88,19.03 -371.74,29.49 -574.64,29.49 -863.452,0 -1563.4125,-189.351 -1563.4125,-422.91 0,-233.562 699.9605,-422.922 1563.4125,-422.922 5.96,0 11.88,0.043 17.83,0.063 L 1660.74,17.1211 h 203.74 l 52.88,207.4179 c 49.43,2.231 98.09,5.082 145.84,8.531 l 62.88,-217.8786 h 195.23 L 2294.97,255.27 c 546.27,65.929 927.05,214.128 927.05,386.39"
         style="fill:#ffffff;fill-opacity:1;fill-rule:nonzero;stroke:none"
         transform="matrix(0.13333333,0,0,-0.13333333,0,182.64)" />
      <path
         id="path3"
         d=""
         style="fill:#211d1d;fill-opacity:1;fill-rule:nonzero;stroke:none"
         aria-label="  &#10;  "
         transform="matrix(1.3333333,0,0,1.3333333,345.38267,23.689333)" />
      <path
         id="path4"
         d="m 3222.02,641.66 c 0,120.449 -186.18,229.149 -484.94,306.168 l 16.53,336.732 h -162.47 l -30.71,-297.419 c -47.07,9.007 -96.09,17.319 -146.81,24.899 l -31.09,271.66 -168.11,0.86 18.82,-249.48 c -177.88,19.03 -371.74,29.49 -574.64,29.49 -863.452,0 -1563.4125,-189.351 -1563.4125,-422.91 0,-233.562 699.9605,-422.922 1563.4125,-422.922 5.96,0 11.88,0.043 17.83,0.063 L 1660.74,17.1211 h 203.74 l 52.88,207.4179 c 49.43,2.231 98.09,5.082 145.84,8.531 l 62.88,-217.8786 h 195.23 L 2294.97,255.27 c 546.27,65.929 927.05,214.128 927.05,386.39 z"
         style="fill:none;stroke:#211d1d;stroke-width:10.37;stroke-linecap:butt;stroke-linejoin:miter;stroke-miterlimit:10;stroke-dasharray:none;stroke-opacity:1"
         transform="matrix(0.13333333,0,0,-0.13333333,0,182.64)" />
      <path
         id="path5"
         d="m 2279.13,1072.54 c -2.94,14.76 -3.38,33.01 -3.86,48.84 -3.15,1.6 -9.11,1.39 -14.13,1.28 -0.21,0.22 -0.43,0.43 -0.65,0.64 -0.64,5.58 -1.29,11.15 -1.92,16.72 -3.44,1.28 -6.87,2.57 -10.29,3.84 -7.15,4.48 -16.13,18 -10.28,30.85 3.52,7.75 14.6,8.52 17.35,14.15 -0.22,5.14 -0.42,10.28 -0.64,15.41 1.07,0.23 2.14,0.44 3.22,0.66 h 10.92 c 0.21,1.5 0.43,2.98 0.65,4.5 -1.29,15.84 -2.58,31.7 -3.86,47.55 30.2,0.22 60.41,0.43 90.61,0.63 0.21,-0.2 0.43,-0.41 0.64,-0.63 1.72,-16.93 3.43,-33.85 5.15,-50.77 0.43,-0.21 0.85,-0.42 1.28,-0.64 2.85,-1.8 7.31,-0.61 10.28,-1.3 1.16,-25.04 6.37,-56.75 10.92,-80.97 -3.84,-0.21 -7.7,-0.42 -11.56,-0.64 -0.7,-1.36 -0.84,-1.21 -1.29,-3.21 5.32,-7.86 1.23,-23.31 3.86,-33.43 6.49,-24.93 3.65,-52.57 8.99,-79.04 8.18,-40.476 7.76,-85.355 15.43,-125.964 2.87,-15.172 1.67,-30.692 5.14,-44.34 0.22,-4.723 0.44,-9.43 0.65,-14.141 3.44,-16.84 3.27,-36.832 7.07,-53.34 0.21,-4.711 0.42,-9.429 0.64,-14.14 3.37,-16.871 3.55,-36.828 7.07,-53.34 1.7,-8.051 0.15,-14.871 2.56,-21.211 0.22,0.223 0.44,0.43 0.65,0.652 16.7,25.91 33.42,51.84 50.13,77.758 3.39,5.102 10.45,21.813 16.07,23.133 2.12,-6.774 8.02,-12.363 11.56,-17.992 12.01,-19.078 24.14,-37.789 35.99,-56.551 3.61,-5.731 12.82,-25.328 18.64,-27 v 3.859 c 0.85,9.211 1.71,18.422 2.58,27.633 1.92,17.141 3.84,34.277 5.77,51.418 v 11.563 c 9.36,44.75 5.07,95.179 14.78,140.097 2.85,13.192 1.29,26.981 3.86,39.211 4.1,19.449 1.56,39.602 5.78,57.845 v 11.57 c 4.16,20.85 5.55,46.09 7.71,67.46 0.89,8.68 4.59,25.2 1.29,30.86 -2.78,0.21 -5.57,0.43 -8.35,0.64 3.64,27.41 7.28,54.84 10.92,82.27 3.37,-0.22 4.26,-0.79 6.43,0.64 3.29,6.18 5.12,42.09 5.14,52.04 30.42,0.23 60.84,0.44 91.26,0.66 -1.07,-17.56 -2.14,-35.14 -3.21,-52.7 0.64,-0.21 1.28,-0.43 1.93,-0.64 h 16.7 c 0.21,-2.16 0.43,-4.29 0.65,-6.43 -0.22,-3.86 -0.44,-7.71 -0.65,-11.57 15.5,-6.75 26.36,-20.29 12.86,-37.93 -4.5,-5.86 -16.17,-4.52 -16.71,-14.12 -0.65,-3.86 -1.29,-7.72 -1.93,-11.58 -5.57,-0.21 -11.14,-0.42 -16.72,-0.64 -0.76,-1.48 -0.95,-1.46 -1.27,-3.86 -1.08,-19.48 -2.15,-38.98 -3.23,-58.48 -2.78,-42.84 -5.56,-85.695 -8.34,-128.523 -0.22,-8.793 -0.43,-17.57 -0.64,-26.352 -1.75,-9.09 0.02,-20.781 -1.93,-31.492 -7.84,-43.098 -1.29,-91.769 -9,-134.957 -0.64,-16.711 -1.29,-33.422 -1.92,-50.133 -2.58,-37.488 -5.15,-74.988 -7.73,-112.476 v -18.621 c -2.68,-14.063 -1.28,-33.071 -3.84,-47.571 v -17.351 c -2.7,-14.078 -1.3,-33.039 -3.86,-47.547 v -16.723 c -3.95,-19.828 -3.76,-43.437 -3.85,-65.543 -6.24,-3 -19.76,-1.281 -28.29,-1.281 h -64.26 -230.72 c -0.21,5.352 -0.43,10.715 -0.65,16.066"
         style="fill:#100f0d;fill-opacity:1;fill-rule:nonzero;stroke:none"
         transform="matrix(0.13333333,0,0,-0.13333333,0,182.64)" />
      <path
         id="path6"
         d="m 2261.14,1200.43 c -1.46,-1.7 -1.64,-1.25 -1.94,-4.5 0.44,-6.64 0.86,-13.29 1.29,-19.93 h -1.93 c -0.22,1.71 -0.43,3.43 -0.63,5.14 -1.29,0.22 -2.58,0.43 -3.86,0.65 -4.02,-2.65 -8.45,-4.24 -10.94,-8.36 -7.91,-13.2 5.53,-27.18 16.72,-28.27 0.86,1.66 1.18,2.23 1.29,5.14 -0.21,1.5 -0.43,3 -0.65,4.5 -2.99,1.79 -5.36,3.41 -7.71,5.77 0.21,2.79 0.43,5.57 0.65,8.36 2.74,1.45 4.67,3.52 7.71,4.5 v -5.13 c 1.06,-13.3 2.14,-26.57 3.21,-39.85 6.62,-3.95 22.83,-1.93 32.78,-1.93 h 79.68 c 0.43,0.21 0.87,0.43 1.29,0.64 0.2,1.07 0.43,2.14 0.65,3.22 -3.23,23.12 -6.44,46.26 -9.65,69.41 -0.22,0.21 -0.42,0.42 -0.65,0.64 h -107.31"
         style="fill:#ffffff;fill-opacity:1;fill-rule:nonzero;stroke:none"
         transform="matrix(0.13333333,0,0,-0.13333333,0,182.64)" />
      <path
         id="path7"
         d="m 2605.6,1200.43 c -0.65,-0.43 -1.29,-0.86 -1.91,-1.29 -2.8,-23.57 -5.59,-47.14 -8.37,-70.69 0.91,-1.43 -0.12,-0.36 1.27,-1.29 h 111.84 c 0.21,0.64 0.43,1.29 0.64,1.93 0.65,5.79 1.29,11.57 1.93,17.36 0.63,0.21 1.27,0.41 1.92,0.64 1.11,-2.07 0.42,-1.52 3.22,-1.93 6.58,4.2 12.29,5.89 15.43,13.48 4.8,11.7 -4.57,22.68 -15.43,23.15 -1.09,-2.11 -1.37,-4.65 -1.29,-8.36 h -1.93 v 8.36 c 0.64,5.78 1.29,11.57 1.93,17.35 -0.64,0.22 -1.29,0.43 -1.93,0.65 -35.76,0.21 -71.56,0.42 -107.32,0.64"
         style="fill:#ffffff;fill-opacity:1;fill-rule:nonzero;stroke:none"
         transform="matrix(0.13333333,0,0,-0.13333333,0,182.64)" />
      <path
         id="path8"
         d="m 2712.28,1172.79 h 2.58 c 4.33,-4.95 7.34,-5.34 5.14,-14.14 -2.26,-1.2 -5.22,-2.1 -6.43,-4.5 -1.11,-2.42 0.09,-3.93 -2.57,-5.14 v 6.43 c 0.43,5.78 0.86,11.56 1.28,17.35"
         style="fill:#211d1d;fill-opacity:1;fill-rule:nonzero;stroke:none"
         transform="matrix(0.13333333,0,0,-0.13333333,0,182.64)" />
      <path
         id="path9"
         d="m 1229.66,668.938 v 19.281 c -5.66,31.281 -3.09,74.211 -3.21,109.25 v 61.058 c 0.21,10.922 0.43,21.852 0.64,32.774 0.22,7.5 0.43,15 0.64,22.488 v 35.352 c 3.69,20.039 3.68,51.959 3.86,73.269 h 291.77 c -7.5,-131.519 -15,-263.082 -22.49,-394.601 -3.01,-49.059 -6,-98.11 -9,-147.168 2.9,-11.903 11.43,-30.942 16.71,-43.063 5.56,-12.777 18.21,-22.148 26.35,-32.777 2.66,-3.473 5.44,-9.883 9.63,-11.563 10.92,-4.398 22.36,-3.66 34.07,-7.078 21.27,-6.199 46.29,-9.422 67.47,-16.699 13.35,-4.582 32.17,5.18 44.35,1.918 6,-3.859 12,-7.707 17.99,-11.551 4.97,-3.066 11.18,-3.09 11.58,-10.93 -3.67,-5.808 -5.78,-29.578 -5.79,-38.558 0.44,-0.219 0.85,-0.442 1.28,-0.649 1.08,-0.211 2.15,-0.429 3.22,-0.652 3.53,-8.57 6.57,-19.957 7.06,-30.199 -0.2,-0.211 -0.41,-0.418 -0.63,-0.629 -11.81,-1.781 -18.56,-2.16 -30.85,-2.59 v 2.59 c -4.01,2.277 -19.5,-1.039 -28.28,-1.941 -0.43,1.082 -0.85,2.152 -1.29,3.218 -12.63,1.641 -21.55,-2.457 -35.98,-2.578 -2.2,3.602 -8.99,2.86 -14.79,2.578 -7.95,-8.148 -26.34,2.942 -32.77,0.641 -1.34,-0.481 -1.61,-2.738 -2.57,-3.219 -7.28,0.219 -14.57,0.442 -21.85,0.649 -2.8,1.543 -7.93,5.32 -14.78,3.211 -14.15,-4.348 -46.35,1.011 -61.06,3.859 -3,-0.43 -6,-0.859 -8.99,-1.289 -9.3,1.879 -22.66,1.14 -31.49,5.789 -0.22,1.07 -0.43,2.141 -0.65,3.211 1.25,2.031 1.35,4.89 1.29,8.359 -12.06,4.84 -24.69,7.133 -38.56,10.93 -4.72,1.281 -14.24,5.23 -18.64,3.84 -0.22,-1.278 -0.43,-2.571 -0.64,-3.84 1.5,-9.649 3,-19.289 4.5,-28.93 -3.22,-0.219 -6.43,-0.429 -9.65,-0.64 -6.54,-3.188 -17.29,0.211 -25.7,-1.289 -31.27,-1.93 -62.56,-3.86 -93.83,-5.79 -0.21,0.219 -0.43,0.43 -0.64,0.641 -3.86,20.359 -7.72,40.707 -11.57,61.059 1.71,0.218 3.43,0.441 5.14,0.648 1.93,-0.207 3.86,-0.43 5.79,-0.648 0.42,0.648 0.85,1.281 1.28,1.929 -4.23,21.032 -9.6,44.079 -14.14,66.829 -1.71,23.792 -3.43,47.57 -5.14,71.339"
         style="fill:#100f0d;fill-opacity:1;fill-rule:nonzero;stroke:none"
         transform="matrix(0.13333333,0,0,-0.13333333,0,182.64)" />
      <path
         id="path10"
         d="m 1062.56,792.332 c 11.12,1.59 19.52,10.981 26.99,16.711 27.41,21 40.93,61.609 41.14,109.25 h 1.92 c 8.14,-11.352 16.28,-22.711 24.42,-34.063 12.96,-19.929 22.19,-42.75 32.14,-65.546 9.73,-22.313 10.04,-50.524 15.42,-77.121 v -13.5 c 3.59,-18.879 1.38,-59.7 -3.85,-75.192 -4.8,-14.199 -8.88,-29.008 -15.43,-41.777 -5.57,-9.203 -11.14,-18.422 -16.71,-27.621 h -1.28 v 2.558 c 7.4,11.223 6.56,29.223 9.64,44.34 11.75,57.781 1.31,122.82 -17.36,165.172 -5.11,11.598 -9.48,32.328 -17.99,39.848 h -0.64 c -2.79,-10.071 -5.57,-20.137 -8.36,-30.207 -16.25,-37.274 -31.32,-63.621 -70.05,-78.403 -72.369,-27.621 -142.997,10.602 -196.005,32.129 -23.262,9.453 -65.903,21.543 -97.692,10.934 -17.082,-5.711 -35.019,-13.821 -48.84,-23.141 -15.449,-10.43 -29.48,-29.551 -38.558,-46.269 -8.582,-15.801 -13.57,-34 -18.633,-53.34 -9.367,-35.731 3.77,-82.5 14.781,-105.403 8.2,-17.07 15.621,-30.988 26.34,-44.988 32.039,-41.82 100.551,-62.293 158.738,-78.41 14.141,-1.922 28.282,-3.84 42.422,-5.781 10.66,-2.051 25.231,0.218 33.418,1.941 8.242,1.719 14.332,-0.082 21.852,1.918 27.101,7.192 52.067,14.652 74.547,26.352 9,5.129 17.99,10.281 26.99,15.429 0.21,-53.781 0.43,-107.55 0.64,-161.32 -4.5,-0.211 -9,-0.434 -13.49,-0.641 -20.35,1.289 -40.71,2.579 -61.058,3.86 -30.278,7.121 -63.41,7.969 -91.899,14.789 -5.359,0.629 -10.711,1.281 -16.07,1.922 -40.289,13.508 -84.719,17.039 -123.379,32.129 -49.281,19.23 -99.789,33.621 -145.25,56.55 -29.371,14.821 -58.832,30.301 -86.109,47.563 -9.711,6.137 -18.871,14.289 -28.282,20.566 -41.832,27.91 -82.601,67.192 -102.191,116.961 -2.348,8.571 -4.711,17.141 -7.07,25.711 -6.09,23.371 0.711,51.52 7.07,68.762 18.02,48.848 52.5,82.406 90.621,111.18 69.84,52.726 149.942,89.457 241,122.109 98.988,35.5 205.61,58.449 335.467,63.617 0.21,-63.187 0.43,-126.387 0.64,-189.578"
         style="fill:#100f0d;fill-opacity:1;fill-rule:nonzero;stroke:none"
         transform="matrix(0.13333333,0,0,-0.13333333,0,182.64)" />
      <path
         id="path11"
         d="m 1789.42,938.859 h 398.45 c 22.06,-249.968 44.13,-500.019 66.19,-749.988 2.9,-1.48 8.13,-1.402 12.86,-1.281 0.21,-3.43 0.43,-6.86 0.64,-10.289 0.65,-2.582 1.28,-5.141 1.93,-7.711 14.12,-2.531 34.94,-20.809 22.49,-39.211 -3.76,-5.551 -10,-4.098 -16.71,-7.059 -0.21,-0.859 -0.42,-1.718 -0.64,-2.57 0.64,-5.148 1.29,-10.289 1.92,-15.43 h -14.14 c -0.21,-3.211 -0.42,-6.4294 -0.64,-9.6403 3.62,-7.2383 3.18,-22.918 3.22,-32.1289 h -115.04 c -0.21,0.2109 -0.42,0.4297 -0.64,0.6406 -3.43,13.5 -6.85,27 -10.28,40.4806 -4.28,0.43 -8.57,0.859 -12.86,1.289 -5.99,27.211 -11.99,54.418 -17.99,81.629 h 8.36 c 0.2,1.711 0.42,3.422 0.63,5.14 -3.93,6.5 -3.46,15.04 -5.78,23.129 -4.83,16.903 -9.11,36.7 -14.78,53.34 -0.86,4.723 -1.7,9.43 -2.57,14.141 -7.41,20.851 -10.15,43.492 -16.71,65.551 -11.68,39.269 -20,81.808 -32.13,120.82 -6.88,22.117 -9.54,44.668 -16.71,65.559 -1.28,6.421 -2.57,12.859 -3.86,19.281 -4.92,18.039 -10.06,38.148 -15.41,55.91 -1.77,5.82 -4.76,29.07 -8.36,30.84 h -24.43 c -0.42,-0.211 -0.85,-0.43 -1.28,-0.641 -36.2,-150.801 -72.42,-301.629 -108.61,-452.43 h 1.29 c 2.56,-0.429 5.13,-0.859 7.71,-1.289 -6.22,-26.992 -12.43,-53.992 -18.64,-80.98 -3.43,-0.211 -6.86,-0.43 -10.28,-0.641 -3.42,-13.2692 -6.86,-26.57 -10.29,-39.8395 -38.34,-0.211 -76.7,-0.4297 -115.04,-0.6407 -0.21,0.8516 -0.42,1.711 -0.63,2.5586 1.28,12.2227 2.57,24.4336 3.84,36.6406 -0.41,0.422 -0.85,0.852 -1.27,1.281 h -16.07 c 0.64,6 1.28,12 1.93,18 -0.22,0.211 -0.43,0.418 -0.65,0.641 -23.24,-0.359 -23.48,28.121 -10.28,38.559 3.87,3.062 13.14,4.429 16.06,8.351 2.1,4.141 2.38,12 1.93,16.07 4.29,0.219 8.57,0.43 12.85,0.649"
         style="fill:#100f0d;fill-opacity:1;fill-rule:nonzero;stroke:none"
         transform="matrix(0.13333333,0,0,-0.13333333,0,182.64)" />
      <path
         id="path12"
         d="m 3013.69,859.809 c 0.54,-1.168 1.17,-0.75 0,-1.282 v 1.282"
         style="fill:#211d1d;fill-opacity:1;fill-rule:nonzero;stroke:none"
         transform="matrix(0.13333333,0,0,-0.13333333,0,182.64)" />
      <path
         id="path13"
         d="m 3068.96,831.535 c 0.53,-1.168 1.16,-0.75 0,-1.289 v 1.289"
         style="fill:#211d1d;fill-opacity:1;fill-rule:nonzero;stroke:none"
         transform="matrix(0.13333333,0,0,-0.13333333,0,182.64)" />
      <path
         id="path14"
         d="m 1721.94,183.09 c -0.7,-0.969 -0.66,-0.649 -1.29,-1.942 -2.27,-4.937 -0.13,-12.957 -2.57,-17.347 -0.65,-0.211 -1.29,-0.43 -1.94,-0.653 -0.9,1.832 -0.12,1.012 -1.92,1.942 -10.84,-7.641 -20.87,-7.891 -20.56,-26.988 2.89,-3.442 5.11,-5.973 8.35,-9.012 2.36,-0.199 4.71,-0.41 7.07,-0.629 0.22,0.219 0.43,0.43 0.64,0.629 0.43,3.012 0.86,6.012 1.29,9.012 -4.34,2.23 -6.05,3.199 -5.79,10.269 h 0.65 c 1.78,4.481 5.39,4.07 8.35,7.078 1.44,2.762 0.72,5.781 3.86,7.071 v -6.43 c -3.31,-6.602 -5.23,-35.75 -5.78,-44.988 0.63,-0.223 1.28,-0.43 1.92,-0.641 35.14,-0.211 70.27,-0.43 105.41,-0.641 9.02,0 27.09,-2.679 33.4,1.282 5.58,23.57 11.14,47.136 16.72,70.699 -0.43,0.429 -0.86,0.847 -1.29,1.289 h -146.52"
         style="fill:#ffffff;fill-opacity:1;fill-rule:nonzero;stroke:none"
         transform="matrix(0.13333333,0,0,-0.13333333,0,182.64)" />
      <path
         id="path15"
         d="m 2115.25,183.09 c -2.05,-6.84 2.53,-17.82 4.5,-23.789 5.32,-16.11 4.33,-34.031 10.92,-48.84 34.06,-0.211 68.13,-0.43 102.19,-0.641 8.79,0 32.47,-2.109 37.91,1.282 0.22,1.078 0.43,2.148 0.65,3.218 -4.29,7.11 -1.39,18.981 -3.21,28.27 -2.32,11.801 -2.87,27.949 -5.8,39.851 -0.21,0.207 -0.42,0.43 -0.64,0.649 h -146.52"
         style="fill:#ffffff;fill-opacity:1;fill-rule:nonzero;stroke:none"
         transform="matrix(0.13333333,0,0,-0.13333333,0,182.64)" />
      <path
         id="path16"
         d="m 2268.21,165.09 c -0.97,-3.36 0.42,-6.77 1.29,-10.281 5.9,-2.348 9.69,-3.77 9.63,-12.219 -0.21,-0.418 -0.43,-0.86 -0.65,-1.281 -3.23,-1.778 -5.58,-1.829 -5.77,-7.071 0.21,-1.707 0.42,-3.429 0.63,-5.136 0.43,-0.422 0.86,-0.852 1.29,-1.293 9.43,2.91 16.19,4.351 16.07,16.722 -6.51,10.328 -8.24,17.86 -22.49,20.559"
         style="fill:#ffffff;fill-opacity:1;fill-rule:nonzero;stroke:none"
         transform="matrix(0.13333333,0,0,-0.13333333,0,182.64)" />
      <path
         id="path17"
         d="m 2915.09,553.152 4.16,24.7 c -7.54,-1.559 -16.38,-3.379 -25.48,-3.379 h -89.44 v 25.738 c 0,7.019 2.34,10.66 8.06,11.699 l 77.48,15.602 c 20.02,3.898 28.34,12.218 28.34,31.718 v 27.821 c 0,23.14 -12.74,32.5 -35.1,32.5 h -124.02 l -2.6,-24.18 c 6.24,1.559 11.18,2.859 23.4,2.859 h 78.26 c 8.58,0 11.18,-2.078 11.18,-7.539 V 678.73 c 0,-5.199 -2.08,-8.578 -8.58,-9.621 l -76.44,-15.339 c -20.28,-3.899 -27.3,-11.18 -27.3,-28.598 v -72.02 z m 163.54,0 c 18.2,0 30.42,10.141 30.42,30.161 v 45.757 c 0,20.02 -12.22,30.16 -30.42,30.16 h -70.72 c -6.24,0 -9.36,-3.378 -10.66,-10.398 h -0.52 v 42.898 c 0,4.422 2.6,6.5 9.1,6.5 h 77.22 c 12.74,0 17.68,-1.3 23.92,-2.859 l -2.6,24.18 h -126.1 c -18.2,0 -30.42,-10.141 -30.42,-30.16 V 583.313 c 0,-20.02 12.22,-30.161 30.42,-30.161 z m -72.8,21.321 c -6.5,0 -9.1,2.078 -9.1,8.578 v 46.281 c 0,6.5 2.6,8.578 9.1,8.578 h 46.8 c 6.5,0 9.1,-2.078 9.1,-8.578 v -46.281 c 0,-6.5 -2.6,-8.578 -9.1,-8.578 h -46.8"
         style="fill:#ec1b2d;fill-opacity:1;fill-rule:nonzero;stroke:none"
         transform="matrix(0.13333333,0,0,-0.13333333,0,182.64)" />
      <path
         id="path18"
         d="m 2915.09,553.152 4.16,24.7 c -7.54,-1.559 -16.38,-3.379 -25.48,-3.379 h -89.44 v 25.738 c 0,7.019 2.34,10.66 8.06,11.699 l 77.48,15.602 c 20.02,3.898 28.34,12.218 28.34,31.718 v 27.821 c 0,23.14 -12.74,32.5 -35.1,32.5 h -124.02 l -2.6,-24.18 c 6.24,1.559 11.18,2.859 23.4,2.859 h 78.26 c 8.58,0 11.18,-2.078 11.18,-7.539 V 678.73 c 0,-5.199 -2.08,-8.578 -8.58,-9.621 l -76.44,-15.339 c -20.28,-3.899 -27.3,-11.18 -27.3,-28.598 v -72.02 z m 163.54,0 c 18.2,0 30.42,10.141 30.42,30.161 v 45.757 c 0,20.02 -12.22,30.16 -30.42,30.16 h -70.72 c -6.24,0 -9.36,-3.378 -10.66,-10.398 h -0.52 v 42.898 c 0,4.422 2.6,6.5 9.1,6.5 h 77.22 c 12.74,0 17.68,-1.3 23.92,-2.859 l -2.6,24.18 h -126.1 c -18.2,0 -30.42,-10.141 -30.42,-30.16 V 583.313 c 0,-20.02 12.22,-30.161 30.42,-30.161 z m -72.8,21.321 c -6.5,0 -9.1,2.078 -9.1,8.578 v 46.281 c 0,6.5 2.6,8.578 9.1,8.578 h 46.8 c 6.5,0 9.1,-2.078 9.1,-8.578 v -46.281 c 0,-6.5 -2.6,-8.578 -9.1,-8.578 z"
         style="fill:none;stroke:#211d1d;stroke-width:11.33858293;stroke-linecap:butt;stroke-linejoin:miter;stroke-miterlimit:9.602;stroke-dasharray:none;stroke-opacity:1"
         transform="matrix(0.13333333,0,0,-0.13333333,0,182.64)" />
      <path
         id="path19"
         d="m 2915.09,553.152 4.16,24.7 c -7.54,-1.559 -16.38,-3.379 -25.48,-3.379 h -89.44 v 25.738 c 0,7.019 2.34,10.66 8.06,11.699 l 77.48,15.602 c 20.02,3.898 28.34,12.218 28.34,31.718 v 27.821 c 0,23.14 -12.74,32.5 -35.1,32.5 h -124.02 l -2.6,-24.18 c 6.24,1.559 11.18,2.859 23.4,2.859 h 78.26 c 8.58,0 11.18,-2.078 11.18,-7.539 V 678.73 c 0,-5.199 -2.08,-8.578 -8.58,-9.621 l -76.44,-15.339 c -20.28,-3.899 -27.3,-11.18 -27.3,-28.598 v -72.02 z m 163.54,0 c 18.2,0 30.42,10.141 30.42,30.161 v 45.757 c 0,20.02 -12.22,30.16 -30.42,30.16 h -70.72 c -6.24,0 -9.36,-3.378 -10.66,-10.398 h -0.52 v 42.898 c 0,4.422 2.6,6.5 9.1,6.5 h 77.22 c 12.74,0 17.68,-1.3 23.92,-2.859 l -2.6,24.18 h -126.1 c -18.2,0 -30.42,-10.141 -30.42,-30.16 V 583.313 c 0,-20.02 12.22,-30.161 30.42,-30.161 z m -72.8,21.321 c -6.5,0 -9.1,2.078 -9.1,8.578 v 46.281 c 0,6.5 2.6,8.578 9.1,8.578 h 46.8 c 6.5,0 9.1,-2.078 9.1,-8.578 v -46.281 c 0,-6.5 -2.6,-8.578 -9.1,-8.578 h -46.8"
         style="fill:#ec1b2d;fill-opacity:1;fill-rule:nonzero;stroke:none"
         transform="matrix(0.13333333,0,0,-0.13333333,0,182.64)" />
    </g>
  </g>
</svg>
