<?xml version="1.0" encoding="UTF-8" standalone="no"?>
<!-- Created with Inkscape (http://www.inkscape.org/) -->

<svg
   width="435.6022"
   height="437.88995"
   viewBox="0 0 115.25308 115.85838"
   version="1.1"
   id="svg5"
   inkscape:version="1.1.2 (0a00cf5339, 2022-02-04)"
   sodipodi:docname="goB_logo_light.svg"
   xmlns:inkscape="http://www.inkscape.org/namespaces/inkscape"
   xmlns:sodipodi="http://sodipodi.sourceforge.net/DTD/sodipodi-0.dtd"
   xmlns="http://www.w3.org/2000/svg"
   xmlns:svg="http://www.w3.org/2000/svg">
  <sodipodi:namedview
     id="namedview7"
     pagecolor="#505050"
     bordercolor="#eeeeee"
     borderopacity="1"
     inkscape:pageshadow="0"
     inkscape:pageopacity="0"
     inkscape:pagecheckerboard="0"
     inkscape:document-units="px"
     showgrid="false"
     showborder="false"
     inkscape:zoom="0.96463358"
     inkscape:cx="76.713067"
     inkscape:cy="229.10254"
     inkscape:window-width="1920"
     inkscape:window-height="1131"
     inkscape:window-x="0"
     inkscape:window-y="32"
     inkscape:window-maximized="1"
     inkscape:current-layer="layer5"
     units="px"
     fit-margin-top="0"
     fit-margin-left="0"
     fit-margin-right="0"
     fit-margin-bottom="0"
     inkscape:snap-center="true" />
  <defs
     id="defs2">
    <linearGradient
       id="linearGradient112676"
       inkscape:swatch="solid">
      <stop
         style="stop-color:#000000;stop-opacity:1;"
         offset="0"
         id="stop112674" />
    </linearGradient>
    <linearGradient
       id="linearGradient112632"
       inkscape:swatch="solid">
      <stop
         style="stop-color:#ff8080;stop-opacity:1;"
         offset="0"
         id="stop112630" />
    </linearGradient>
    <linearGradient
       id="linearGradient112583"
       inkscape:swatch="solid">
      <stop
         style="stop-color:#ff8080;stop-opacity:1;"
         offset="0"
         id="stop112581" />
    </linearGradient>
    <linearGradient
       id="linearGradient110611"
       inkscape:swatch="solid">
      <stop
         style="stop-color:#ff8080;stop-opacity:1;"
         offset="0"
         id="stop110609" />
    </linearGradient>
  </defs>
  <g
     inkscape:groupmode="layer"
     id="layer1"
     inkscape:label="asf" />
  <g
     inkscape:groupmode="layer"
     id="layer4"
     inkscape:label="B"
     style="display:inline"
     transform="translate(-8.4584401,-7.5774595)">
    <path
       id="path150431"
       style="vector-effect:non-scaling-stroke;fill:#a78656;fill-opacity:1;stroke:#000000;stroke-width:0.00042003;stroke-linecap:round;stroke-linejoin:bevel;stroke-miterlimit:4;stroke-dasharray:none;stroke-opacity:1;-inkscape-stroke:hairline"
       d="m 55.730631,70.8789 0.07675,15.856244 9.386782,0.07617 c 0,0 -0.997308,1.641005 -1.673871,2.308693 -2.287931,2.257919 -4.685177,3.067728 -7.898768,2.37773 -3.902245,-0.837861 -7.112792,-4.23091 -7.406978,-9.407574 -0.226468,-3.985062 2.663529,-8.115783 5.954845,-10.388836 0.485719,-0.331756 1.561242,-0.822428 1.561242,-0.822428 m -4.972393,-21.705915 0.04764,1.251627 c 0,0 2.024299,-0.250079 2.915537,0.140261 0.713995,0.312712 1.338253,0.933463 1.666441,1.640478 0.709426,1.528315 0.383452,5.040264 0.383452,5.040264 l 5.155981,-1.499052 0.126397,-3.863655 c 0,0 2.18107,-0.569777 3.298922,-0.655915 2.828843,-0.240701 5.700078,0.412495 7.902488,1.869088 1.94506,1.377258 3.335796,3.358321 3.498236,5.603332 0.02936,3.151497 -2.210959,5.853479 -4.785458,6.668284 -0.582235,0.172982 -5.315063,-0.205104 -7.949176,0.08346 -3.657195,0.348729 -7.178209,1.227571 -9.935447,3.19801 -4.394893,3.140777 -7.315043,6.830699 -7.403138,11.793869 -0.14273,8.041251 5.607044,12.643793 10.363499,12.952516 3.103825,0.201457 5.508093,-0.595131 7.587271,-2.24591 1.703242,-1.469943 2.883767,-3.319682 3.535506,-5.290225 0.387219,-1.186159 0.685387,-2.423917 0.733306,-3.67076 0.03257,-0.847467 -0.01721,-1.72827 -0.305459,-2.525874 -0.429481,-0.987522 -1.330984,-1.48553 -2.287765,-1.372672 -0.944384,0.111395 -1.680031,0.780867 -1.766896,1.681515 -0.07928,0.822004 0.06269,1.618849 0.727579,2.061988 0.677497,0.451546 1.464329,0.264535 2.237303,0.258799 0,0 0.203787,0.630669 0.105423,1.310771 -0.09776,0.675944 -0.348086,1.225533 -0.348086,1.225533 0,0 -1.782021,-0.147141 -2.666563,-0.273463 -0.833567,-0.119042 -2.484575,-0.455988 -2.484575,-0.455988 L 60.98447,69.306752 c 7.815842,-0.599946 15.805176,0.111309 16.231269,7.339346 0.309076,5.643269 -3.153785,7.261172 -6.644738,7.990552 -0.605702,0.113153 -1.845849,0.09973 -1.845849,0.09973 l -0.786109,2.056262 c 3.169953,0.164299 6.464699,-0.08332 9.136888,-1.356946 3.824708,-1.880644 6.015199,-5.608706 5.558636,-9.710597 -0.389791,-3.455807 -2.295117,-6.262476 -5.192035,-7.920741 -0.701509,-0.398996 -2.208162,-0.992889 -2.208162,-0.992889 0,0 1.859395,-0.937905 2.672389,-1.577477 2.235507,-1.946926 3.308939,-4.100485 3.057133,-7.195264 -0.415677,-5.108794 -4.968816,-7.182021 -8.456643,-8.121228 -0.923027,-0.237436 -1.864246,-0.420977 -2.812912,-0.512564 -6.283293,-0.606609 -18.936102,-0.23196 -18.936102,-0.23196"
       sodipodi:nodetypes="cccsssccccaaccccccccsssccscssscscscccccccccccscsc" />
  </g>
  <g
     inkscape:groupmode="layer"
     id="layer3"
     inkscape:label="go-txt"
     style="display:inline"
     transform="translate(-8.4584401,-7.5774595)">
    <text
       xml:space="preserve"
       style="font-style:normal;font-variant:normal;font-weight:bold;font-stretch:normal;font-size:10.5833px;line-height:1.25;font-family:'DejaVu Sans';-inkscape-font-specification:'DejaVu Sans, Bold';font-variant-ligatures:normal;font-variant-caps:normal;font-variant-numeric:normal;font-variant-east-asian:normal;vector-effect:non-scaling-stroke;fill:#dbd08f;fill-opacity:1;stroke:#000000;stroke-width:0.00070004;stroke-miterlimit:4;stroke-dasharray:none;stroke-opacity:1;-inkscape-stroke:hairline"
       x="51.34827"
       y="64.198257"
       id="text93996"><tspan
         sodipodi:role="line"
         id="tspan93994"
         style="font-style:normal;font-variant:normal;font-weight:bold;font-stretch:normal;font-size:10.5833px;font-family:'DejaVu Sans';-inkscape-font-specification:'DejaVu Sans, Bold';font-variant-ligatures:normal;font-variant-caps:normal;font-variant-numeric:normal;font-variant-east-asian:normal;vector-effect:non-scaling-stroke;fill:#dbd08f;fill-opacity:1;stroke:#000000;stroke-width:0.00070004;stroke-miterlimit:4;stroke-dasharray:none;stroke-opacity:1;-inkscape-stroke:hairline"
         x="51.34827"
         y="64.198257">go</tspan><tspan
         sodipodi:role="line"
         style="font-style:normal;font-variant:normal;font-weight:bold;font-stretch:normal;font-size:10.5833px;font-family:'DejaVu Sans';-inkscape-font-specification:'DejaVu Sans, Bold';font-variant-ligatures:normal;font-variant-caps:normal;font-variant-numeric:normal;font-variant-east-asian:normal;vector-effect:non-scaling-stroke;fill:#dbd08f;fill-opacity:1;stroke:#000000;stroke-width:0.00070004;stroke-miterlimit:4;stroke-dasharray:none;stroke-opacity:1;-inkscape-stroke:hairline"
         x="51.34827"
         y="77.427383"
         id="tspan93998" /></text>
  </g>
  <g
     inkscape:groupmode="layer"
     id="layer5"
     inkscape:label="swirl"
     style="display:inline"
     transform="translate(-8.4584401,-7.5774595)">
    <path
       style="fill:#dbd08f;stroke:none;stroke-width:0.264583;stroke-linecap:round;stroke-linejoin:round;stroke-miterlimit:4;stroke-dasharray:none;stroke-opacity:1;fill-opacity:1"
       d="m 69.458577,29.91374 c -3.652384,5.255701 -12.367107,0.12274 -8.457495,-5.357811 3.47413,-5.687776 12.125411,-0.826958 10.724702,5.171258 -0.505628,7.307198 -10.258526,9.363273 -15.636121,5.901502 -7.951893,-4.770103 -9.100823,-18.690584 -0.03727,-22.999655 9.13007,-4.7354208 20.733968,-0.451729 26.261617,7.801957 7.524412,9.42265 8.818341,21.882187 13.322456,32.721209 2.879032,6.658837 10.549374,12.048119 17.884024,9.335751 7.22004,-2.947318 10.14004,-11.941356 7.47259,-18.988055 -3.03685,-8.812354 -11.32693,-14.29433 -19.21245,-18.397737 7.70445,5.695923 17.14337,11.869936 18.34547,22.256644 1.33565,7.429048 -6.1253,16.017707 -13.82873,13.150419 C 97.932868,57.02511 96.056933,47.184311 94.074174,39.331688 91.030437,27.961537 85.888969,15.780711 74.83355,10.132708 67.104399,6.4998233 56.837188,6.4513845 50.583665,12.945462 42.235282,21.244647 47.316735,37.55477 58.771221,39.985357 65.71946,41.761496 74.439816,37.500916 74.766672,29.711986 75.913986,22.3676 65.475605,16.105949 60.257117,22.176832 c -4.973059,4.603874 0.146507,13.843514 6.645839,10.8332 1.346792,-0.545743 2.066457,-1.808435 2.555621,-3.096292 z"
       id="path160499"
       sodipodi:nodetypes="cssssssssssssssssssssssssssssssssssssssssssssssssssssssssssscsssssssssssssssssssssssssssssssssssssssssssssssssssssssssssssssssssssssssssc" />
    <path
       style="fill:#dbd08f;stroke:none;stroke-width:0.264583;stroke-linecap:round;stroke-linejoin:round;stroke-miterlimit:4;stroke-dasharray:none;stroke-opacity:1;fill-opacity:1"
       d="m 93.182766,85.172289 c -2.727709,-5.789822 6.072952,-10.774025 8.866894,-4.649041 3.19105,5.851296 -5.342201,10.916523 -9.838129,6.706165 -6.077036,-4.089058 -2.984984,-13.564592 2.700626,-16.493109 8.105183,-4.50473 20.737513,1.455463 19.941513,11.459587 -0.45996,10.27476 -9.96852,18.186009 -19.879991,18.850189 -11.921737,1.8098 -23.361016,-3.294837 -35.000548,-4.809013 -7.206572,-0.83324 -15.707423,3.118232 -17.022679,10.826933 -1.054495,7.72683 5.277392,14.75009 12.714213,15.96041 9.150861,1.77252 18.041648,-2.66946 25.536158,-7.4498 -8.78351,3.82779 -18.847797,8.91915 -28.445652,4.77064 -7.102609,-2.55498 -10.81439,-13.3092 -4.481618,-18.54944 7.197379,-5.504696 16.659052,-2.212691 24.451877,-0.007 11.369928,3.04458 24.490222,4.67711 34.90655,-2.077324 7.00878,-4.879994 12.18083,-13.749528 9.68007,-22.411262 -3.05312,-11.6434 -20.541874,-15.310003 -27.973973,-5.755325 -4.714765,5.080892 -4.923377,14.37262 1.367225,18.325786 5.788631,4.663487 16.428208,-1.249835 13.776898,-8.803567 -1.50318,-6.608131 -12.064802,-6.790062 -12.704614,0.343937 -0.200291,1.439398 0.533994,2.693575 1.40518,3.760834 z"
       id="path160499-7"
       sodipodi:nodetypes="cssssssssssssssssssssssssssssssssssssssssssssssssssssssssssscssssssssssssssssssssssssssssssssssssssssssssssssssssssssssssssssssssssssssscc" />
    <path
       style="fill:#dbd08f;stroke:none;stroke-width:0.264583;stroke-linecap:round;stroke-linejoin:round;stroke-miterlimit:4;stroke-dasharray:none;stroke-opacity:1;fill-opacity:1"
       d="m 29.221166,86.359889 c 6.062688,2.075395 3.451137,11.836069 -2.865913,9.623418 -6.444215,-1.781156 -4.044366,-11.425591 2.072342,-11.747719 7.160248,-1.579794 11.802942,7.256558 9.914522,13.355567 -2.42344,8.923535 -15.437149,14.008155 -22.125305,6.490455 C 9.1486606,96.584694 10.207067,84.2488 16.613094,76.679086 23.639759,66.814223 35.284052,62.07181 44.49658,54.705634 50.091788,50.094522 53.252619,41.25248 48.637902,34.915732 43.810006,28.777901 34.349876,28.55922 28.339537,33.070385 20.690444,38.450777 17.653427,47.93779 15.836495,56.678859 19.236685,47.671172 22.619593,36.888178 32.288245,32.819772 39.024367,29.44567 49.377919,34.202405 48.689788,42.405735 47.593537,51.428596 38.641633,55.970099 31.618483,60.084176 21.498916,66.203337 11.180198,74.532415 8.7277054,86.750989 7.3274169,95.145556 10.034819,105.048 18.00243,109.24317 28.636786,115.11373 43.414132,104.84066 41.654153,92.787228 41.243723,85.654865 34.050588,79.191796 26.82882,81.511933 c -6.874146,1.519558 -9.543379,12.649835 -2.561757,15.853341 5.798317,3.463856 13.270048,-3.992801 8.626208,-9.420723 -0.89252,-1.142431 -2.303841,-1.476302 -3.672105,-1.584662 z"
       id="path160499-1"
       sodipodi:nodetypes="cssssssssssssssssssssssssssssssssssssssssssssssssssssssssssscssssssssssssssssssssssssssssssssssssssssssssssssssssssssssssssssssssssssssscc" />
    <circle
       id="path173820"
       style="fill:#dbd08f;stroke:#000000;stroke-width:0.264583;fill-opacity:1"
       cx="111.72869"
       cy="40.7173"
       r="0.024920028" />
    <circle
       id="path173822"
       style="fill:#dbd08f;stroke:#000000;stroke-width:0.264583;fill-opacity:1"
       cx="111.72869"
       cy="40.7173"
       r="0.024920028" />
    <circle
       id="path173824"
       style="fill:#dbd08f;stroke:#000000;stroke-width:0.264583;fill-opacity:1"
       cx="123.55431"
       cy="85.932068"
       r="0.024920028" />
    <circle
       id="path173826"
       style="fill:#dbd08f;stroke:#000000;stroke-width:0.264583;fill-opacity:1"
       cx="123.55431"
       cy="85.932068"
       r="0.024920028" />
    <ellipse
       id="circle35070"
       style="fill:#dbd08f;stroke:#000000;stroke-width:0.264583;fill-opacity:1"
       cx="-49.017223"
       cy="15.109241"
       rx="0.024920003"
       ry="0.024920033"
       transform="rotate(-107.44216)" />
    <ellipse
       id="circle35072"
       style="fill:#dbd08f;stroke:#000000;stroke-width:0.264583;fill-opacity:1"
       cx="-49.017223"
       cy="15.109241"
       rx="0.024920003"
       ry="0.024920033"
       transform="rotate(-107.44216)" />
    <ellipse
       id="ellipse35160"
       style="fill:#dbd08f;stroke:#000000;stroke-width:0.264583;fill-opacity:1"
       cx="60.435272"
       cy="-117.18298"
       rx="0.024920003"
       ry="0.024920033"
       transform="rotate(124.91927)" />
    <ellipse
       id="ellipse35162"
       style="fill:#dbd08f;stroke:#000000;stroke-width:0.264583;fill-opacity:1"
       cx="60.435272"
       cy="-117.18298"
       rx="0.024920003"
       ry="0.024920033"
       transform="rotate(124.91927)" />
  </g>
  <g
     inkscape:groupmode="layer"
     id="layer8"
     inkscape:label="purple-whirl 1"
     style="display:inline;opacity:1"
     transform="translate(-8.4584401,-7.5774595)">
    <path
       id="path4207"
       style="fill:#965dae;fill-opacity:1;fill-rule:evenodd;stroke:none;stroke-width:1.05308;stroke-linecap:round;stroke-linejoin:round;stroke-opacity:1"
       d="m 369.08131,114.02035 c -1.139,0.25442 -3.43287,1.46399 -3.43287,1.46399 0.36418,-0.14929 2.23503,-0.71999 8.98047,-0.35547 6.31162,0.34106 9.67167,2.21443 10.70117,2.89257 -33.24104,-6.37463 -43.66879,15.38054 -44.13672,31.50586 -3.7e-4,18.69223 14.47611,33.84554 32.33398,33.84571 16.94344,-0.001 31.0125,-13.69285 32.2461,-31.38086 2.55148,2.33232 1.40299,5.92803 0.83545,8.38032 -1.10546,4.77658 -4.40159,10.12666 -7.9292,13.81694 -7.55369,7.35272 -14.28741,12.52515 -29.58622,11.00386 -6.91344,-1.25765 -12.78594,-3.76358 -19.3924,-6.16613 12.30348,6.25187 18.82707,9.05741 31.68459,7.34913 8.29709,-1.10237 16.19192,-6.39773 20.13885,-10.50193 10.4779,-10.8954 9.91299,-22.89196 9.91299,-22.89196 l 0.35938,-4.65039 c 0,0 2.15216,2.42348 1.7832,6.66406 -0.36888,4.2406 -2.81836,13.7793 -2.81836,13.7793 0,0 4.62137,-6.92222 5.5514,-12.89851 0.93002,-5.97628 0.23571,-12.44133 0.23571,-12.44133 0,0 -1.43517,-6.49882 -2.53321,-9.35743 -1.20716,-3.14269 -5.43945,-9.01757 -5.43945,-9.01757 0.0169,2.20375 0.9443,4.31858 1.14816,6.31667 C 409.5419,132.02146 409,132.125 409,132.125 401.26132,115.92317 381.66051,111.47616 369.08131,114.02035 Z"
       sodipodi:nodetypes="ccsccccscccssccscscscccc"
       transform="matrix(0.26458333,0,0,0.26458333,8.4584401,7.5774595)" />
    <path
       style="fill:#965dae;fill-opacity:1;stroke:none;stroke-width:0.264583px;stroke-linecap:butt;stroke-linejoin:miter;stroke-opacity:1"
       d="m 98.420474,41.157296 c 0,0 -1.031143,1.721576 -1.214464,2.687336 -0.171727,0.904682 0.136065,2.759157 0.136065,2.759157 0,0 0.303734,-2.462457 0.385328,-2.66657 0.08777,-0.219556 0.693071,-2.779923 0.693071,-2.779923 z"
       id="path4379"
       sodipodi:nodetypes="cscsc" />
    <path
       style="fill:#965dae;fill-opacity:1;stroke:none;stroke-width:0.264583;stroke-linecap:butt;stroke-linejoin:miter;stroke-miterlimit:4;stroke-dasharray:none;stroke-opacity:1"
       d="m 100.84249,39.407353 c 0.0899,-0.279891 1.10727,-1.023964 2.104,-1.418762 0.99673,-0.394798 2.72543,-0.789263 2.72543,-0.789263 0,0 -2.2682,1.114216 -2.82717,1.426051 -0.55897,0.311838 -2.28099,1.952239 -2.28099,1.952239 0,0 0.18884,-0.890376 0.27873,-1.170265 z"
       id="path4381"
       sodipodi:nodetypes="sscscs" />
    <path
       id="path35074"
       style="fill:#56bbd5;fill-opacity:1;fill-rule:evenodd;stroke:none;stroke-width:0.278627;stroke-linecap:round;stroke-linejoin:round;stroke-opacity:1"
       d="m 27.95558,48.484568 c 0.154536,0.267331 0.64178,0.750415 0.64178,0.750415 -0.06658,-0.08013 -0.358984,-0.507062 -0.801986,-2.238622 -0.414503,-1.620203 -0.208073,-2.616928 -0.11854,-2.930577 1.027175,8.896178 7.345554,9.802989 11.452989,8.642244 4.718279,-1.482328 7.395162,-6.338192 5.978954,-10.845856 -1.34399,-4.276743 -5.915823,-6.742159 -10.478432,-5.650757 0.386376,-0.829011 1.385075,-0.824276 2.049094,-0.875496 1.293359,-0.09978 2.905218,0.30792 4.116479,0.905688 2.455017,1.323553 4.294663,2.613054 5.123962,6.595395 0.230834,1.844814 0.06402,3.52588 -0.0185,5.384 0.602333,-3.601428 0.793137,-5.470595 -0.657753,-8.580588 -0.936276,-2.006906 -2.899027,-3.579734 -4.248025,-4.250513 -3.581163,-1.78073 -6.564506,-0.686722 -6.564506,-0.686722 l -1.202341,0.278079 c 0,0 0.441044,-0.735446 1.540709,-0.978613 1.099656,-0.243196 3.701653,-0.38139 3.701653,-0.38139 0,0 -2.113795,-0.61754 -3.696078,-0.378333 -1.582283,0.239207 -3.159119,0.927154 -3.159119,0.927154 0,0 -1.526597,0.877671 -2.161079,1.381541 -0.697533,0.55394 -1.844809,2.088172 -1.844809,2.088172 0.555071,-0.17859 1.015201,-0.580857 1.503385,-0.790779 0.1771,-0.005 0.246208,0.123531 0.246208,0.123531 -3.475906,3.238295 -3.043928,8.538558 -1.40411,11.512004 z"
       sodipodi:nodetypes="ccsccccscccssccscscscccc" />
    <path
       style="fill:#56bbd5;fill-opacity:1;stroke:none;stroke-width:0.264583px;stroke-linecap:butt;stroke-linejoin:miter;stroke-opacity:1"
       d="m 33.515882,54.798947 c 0,0 1.951502,0.467706 2.927805,0.353118 0.914555,-0.107347 2.591499,-0.956849 2.591499,-0.956849 0,0 -2.440268,0.448337 -2.659462,0.431672 -0.235772,-0.01795 -2.859842,0.172059 -2.859842,0.172059 z"
       id="path35076"
       sodipodi:nodetypes="cscsc" />
    <path
       style="fill:#56bbd5;fill-opacity:1;stroke:none;stroke-width:0.264583;stroke-linecap:butt;stroke-linejoin:miter;stroke-miterlimit:4;stroke-dasharray:none;stroke-opacity:1"
       d="m 31.120426,53.012838 c -0.293977,-0.0019 -1.308784,-0.74943 -1.984191,-1.581983 -0.675401,-0.832565 -1.569898,-2.36354 -1.569898,-2.36354 0,0 1.742865,1.829929 2.207904,2.269729 0.465049,0.439797 2.546182,1.590926 2.546182,1.590926 0,0 -0.906042,0.08673 -1.199997,0.08487 z"
       id="path35078"
       sodipodi:nodetypes="sscscs" />
    <path
       id="path35164"
       style="fill:#d04ebd;fill-opacity:1;fill-rule:evenodd;stroke:none;stroke-width:0.278627;stroke-linecap:round;stroke-linejoin:round;stroke-opacity:1"
       d="m 67.143301,113.72763 c 0.117322,-0.28563 0.202316,-0.96648 0.202316,-0.96648 -0.02279,0.10166 -0.182308,0.59393 -1.282962,2.00216 -1.029875,1.31765 -1.945224,1.76287 -2.248271,1.88351 6.41742,-6.24611 3.277007,-11.80327 -0.150484,-14.34701 -4.055176,-2.83108 -9.535145,-1.98548 -12.239821,1.88872 -2.565916,3.67599 -1.726306,8.8019 1.924238,11.74844 -0.892427,0.2003 -1.498562,-0.59344 -1.944624,-1.08799 -0.868843,-0.96324 -1.530319,-2.48862 -1.796649,-3.81283 -0.451133,-2.75234 -0.553437,-4.99659 2.093659,-8.08522 1.319904,-1.30938 2.752973,-2.20388 4.274769,-3.273247 -3.219726,1.722337 -4.816398,2.712707 -6.393109,5.760837 -1.017462,1.96699 -1.064341,4.48174 -0.771713,5.95962 0.776816,3.9233 3.465001,5.61766 3.465001,5.61766 l 0.954449,0.78229 c 0,0 -0.85172,0.0999 -1.715821,-0.62244 -0.864118,-0.72228 -2.562534,-2.69835 -2.562534,-2.69835 0,0 0.801833,2.05098 1.957521,3.15788 1.155689,1.1069 2.663399,1.93545 2.663399,1.93545 0,0 1.62727,0.6729 2.413738,0.86763 0.864622,0.21409 2.780164,0.18567 2.780164,0.18567 -0.480391,-0.33049 -1.079929,-0.4492 -1.544286,-0.70759 -0.112122,-0.13718 -0.05253,-0.2704 -0.05253,-0.2704 4.686998,0.77493 8.620363,-2.8039 9.97357,-5.91825 z"
       sodipodi:nodetypes="ccsccccscccssccscscscccc" />
    <path
       style="fill:#d04ebd;fill-opacity:1;stroke:none;stroke-width:0.264583px;stroke-linecap:butt;stroke-linejoin:miter;stroke-opacity:1"
       d="m 68.747966,105.46849 c 0,0 -0.821373,-1.83097 -1.508321,-2.53411 -0.643504,-0.65866 -2.34028,-1.46783 -2.34028,-1.46783 0,0 1.845247,1.65861 1.965908,1.84236 0.129763,0.19767 1.882693,2.15958 1.882693,2.15958 z"
       id="path35166"
       sodipodi:nodetypes="cscsc" />
    <path
       style="fill:#d04ebd;fill-opacity:1;stroke:none;stroke-width:0.264583;stroke-linecap:butt;stroke-linejoin:miter;stroke-miterlimit:4;stroke-dasharray:none;stroke-opacity:1"
       d="m 68.796438,108.45614 c 0.178046,0.23393 0.205789,1.49405 -0.04104,2.53732 -0.246838,1.04326 -0.912934,2.68653 -0.912934,2.68653 0,0 0.384752,-2.49764 0.449031,-3.13447 0.06427,-0.63683 -0.295079,-2.98781 -0.295079,-2.98781 0,0 0.621983,0.66451 0.800018,0.89843 z"
       id="path35168"
       sodipodi:nodetypes="sscscs" />
  </g>
</svg>
