<svg xmlns="http://www.w3.org/2000/svg" viewBox="0 0 870.23 870.21"><path d="M419.67.25C208.15 7.27 31.38 168.23 3.79 377.59c-31.53 239.23 137.28 458.68 375.98 489.09 244.53 31.16 466.67-147.34 488.67-392.23C891.91 213.2 681.26-8.44 419.67.25Zm-.13 861.2C169.21 852.11-19.34 631.27 11.46 381.9 37.09 174.35 211.96 15.16 421.11 8.4c225.57-7.28 418.96 163.25 439.18 387.83 23.06 256.25-183.91 474.79-440.74 465.21Z"/><path d="M144.4 662.73c-1.76-2.19-2.16-2.38-3.55-.24l-6.83 10.86c-3.05 4.75-4.49 6.68-4.73 7.51l.12.16c.8-.13 3.71-1.18 8.49-2.81l12.04-3.86c2.91-1.05 2.79-1.2 1.28-3.08l-6.83-8.53ZM177.39 163.32l9.76 10.78c6.17 6.82 9.42 8.91 15.89 3.06 5.13-4.64 6.62-12.12.59-18.78-6.98-7.71-16.32-7.57-24.57-.1-3.27 2.96-3.01 3.54-1.66 5.04ZM361.84 774.27c-4.11-.83-7.4-.67-8.21-.22-.8.46-1.32 2.51-2.26 7.17l-7.05 34.85c-1.94 9.6-2.3 14.89 8.07 16.99 17.42 3.52 27.77-7.37 31.15-24.1 3.96-19.6-5.37-31.38-21.7-34.69ZM457.02 90.23c6.91.43 13.3-3.72 13.86-12.69.65-10.38-5.97-16.97-17.08-17.67-4.4-.28-4.64.32-4.77 2.33l-.91 14.52c-.58 9.17.19 12.97 8.9 13.51ZM429.76 811.4c-4.39-.02-4.59.59-4.6 2.61l-.05 14.54c-.03 9.19.95 12.93 9.64 12.96 6.89.02 12.99-4.5 13.03-13.49.04-10.4-6.93-16.59-18.01-16.63ZM429.48 807.56c9.38.03 13.69-3.69 13.72-12.78.03-8.89-6.44-12.45-12.63-12.47-4.99-.02-5.29.18-5.31 4.22l-.06 18.28c0 2.62.29 2.73 4.28 2.74ZM552.84 727.92c-35.87 14.35-75 22.34-116.01 22.5-4.4.02-8.82-.06-13.27-.22-37.55-1.4-73.23-9.2-106.08-22.28a316.373 316.373 0 0 1-59.23-31.22c18.74 12.65 38.79 23.31 59.7 31.63 33.59 13.37 69.17 20.84 105.75 22.21 4.38.16 8.83.24 13.23.22 39.94-.16 78.85-7.71 115.64-22.43 41.22-16.49 79.16-42.07 110.23-74.24-30.8 31.74-68.17 57.11-109.96 73.83ZM103.22 251.82c11.81 7.4 31.04 12.47 40.15-2.07 6.07-9.69 3.7-22.07-13.51-32.84-12.92-8.1-31.52-11.7-39.99 1.81-5.33 8.5-4.88 21.68 13.35 33.1ZM327.99 107.24c10.88-3.52 17.01-14.54 10.75-33.85-4.7-14.51-16.64-29.22-31.81-24.3-9.54 3.09-17.67 13.48-11.04 33.94 4.3 13.26 15.78 29.5 32.1 24.21ZM94.79 491.76c-2.9-17.62-16.76-23.47-33.6-20.7-19.73 3.25-27.43 16.2-24.71 32.73.68 4.16 2 7.19 2.71 7.79s2.82.35 7.5-.42l35.08-5.77c9.67-1.59 14.74-3.14 13.01-13.63ZM453.75 56.02c9.41.59 13.95-2.87 14.52-11.94.56-8.87-5.73-12.81-11.93-13.2-5-.31-5.32-.13-5.57 3.9l-1.15 18.25c-.16 2.62.13 2.74 4.13 2.99ZM258.49 138.32c9.84-5.83 13.4-17.92 3.05-35.38-7.77-13.12-22.65-24.85-36.37-16.72-8.63 5.11-14.28 17.03-3.31 35.54 7.11 11.99 21.87 25.31 36.63 16.57ZM577.91 92.99l9.97 4.49c2.56 1.15 3.01 1.13 3.27-1.4l1.14-12.78c.55-5.62.96-7.99.79-8.84l-.18-.08c-.66.48-2.77 2.74-6.28 6.36l-8.97 8.92c-2.12 2.26-1.94 2.34.26 3.33ZM676.79 726.28c-1.98-2.55-2.11-2.71-5.91.24-7.76 6.03-8.35 12.63-2.46 20.2 4.9 6.3 13.21 8.66 20.1 3.31 4.12-3.2 4.01-3.5 1.16-7.17l-12.89-16.59ZM767.77 243.4c2.78.65 6.37.27 10.09-1.78 4.6-2.54 6.66-6.53 4.82-9.87-1.69-3.07-5.84-4.11-9.91-1.87-3.72 2.05-5.21 5.62-5.91 11.04-.06.72-.12 1.67-.02 1.84.15.26.74.51.93.64ZM807.56 475.48c-2.76-1.39-2.79-1.2-3.12 1.19l-1.49 10.83c-.38 2.78-.24 3.21 2.27 2.74l12.58-2.52c5.55-1.06 7.93-1.34 8.7-1.74l.03-.2c-.65-.49-3.41-1.89-7.88-4.22l-11.09-6.08ZM491.13 803.4c9.26-1.51 12.89-5.89 11.43-14.87-1.44-8.77-8.41-11.21-14.52-10.21-4.93.81-5.19 1.05-4.54 5.04l2.95 18.04c.42 2.59.74 2.64 4.68 2Z" style="fill:#fff"/><path d="M421.11 8.4C211.96 15.16 37.09 174.35 11.46 381.9c-30.79 249.37 157.75 470.21 408.09 479.55 256.83 9.58 463.8-208.96 440.74-465.21C840.07 171.66 646.67 1.12 421.11 8.4Zm402.87 309.99-.28-2.82c.32-.8 2.28-1.29 2.89-.5 1 4.92 1.98 9.32 3.09 13.8 1.06 4.28 2.23 8.64 3.48 12.88-.18.97-2.11 1.55-2.79.89l-.92-2.05c-1.91-4.38-2.32-5.21-12.52-2.7l-34.42 8.47c-4.9 1.21-8.39 2.27-9.69 4.14-1.08 1.51-1.49 3.26.43 11.05 2.66 10.81 3.54 12.25 14.74 14.24.73.85.82 2.48.16 3.16-4.31.23-12.29-.07-15.23-.59-.81-4.14-2.77-12.54-5.46-23.44l-2.49-10.13c-1.22-4.97-2.52-9.81-3.72-13.85.2-.88 2.09-1.65 2.8-.89l1.21 2.8c1.91 4.38 2.22 5.24 12.43 2.73l36.48-8.98c10.2-2.51 10.28-3.46 9.84-8.21Zm-58.74-94.44c7.96-4.39 16.8-.9 20.82 6.39 4.31 7.82 1.71 15.66-4.39 19.02-6.63 3.66-11.66-.44-15.08-2.46-.7 9.2-2.92 14.78-7.61 23.43 5.35.71 13.06.47 20.13-.1 4.18-.36 5.26-.5 4.35-3.2l-.96-2.79c.36-1.23 1.78-1.78 2.62-1.1l2.66 4.83c2.47 4.48 7.37 12.54 8.66 14.46-.01.81-1.29 1.85-2.38 1.54l-3.11-3.55c-3.49-4.03-7.07-4.46-13.85-4.62-4.7-.16-11.22-.69-18.92-1.48-1.09-.09-1.83.44-2.47 1.59-3.8 6.91-5.2 12.95-1.77 19.18 1.36 2.46 3.97 4.69 6.31 5.8.39.93-.15 2.03-1.18 2.25-7.06-1.72-12.23-7.12-14.64-11.51-2.28-4.13-3.59-9.24-2.83-11.84.56-1.91 2.29-5.27 3.51-7.43-9.12-2.53-14.96-6.64-18.69-13.4-6.97-12.65-1.02-22.57 6.05-26.47 9.2-5.07 18.19-1.09 25.27 3.59.42-1.95 1.3-8.73 7.49-12.14Zm-62.65-94.3-1.13-1.56c0-1 1.36-2.21 2.22-1.93 2.76 3.05 5.88 6.32 9.13 9.59 3.12 3.12 6.38 6.25 9.28 8.87.28.85-1.08 2.35-1.93 2.21l-1.42-.99c-3.9-2.77-4.61-3.33-12.19 4.23l-7.94 7.92c-1.93 1.93-3.15 3.28-2.01 4.42 1.34 1.35 4.62 1.34 9.53 1.12l15.09-.6c1.85 0 6.26-.3 8.26-.59 2.92-.36 3.56-.86 2.93-1.93l-1.55-2.84c-.07-1.07 1.08-1.92 2.21-1.93 2.83 3.12 5.1 5.54 7.72 8.17 3.05 3.05 5.38 5.11 8.01 7.6.56 1-.79 2.63-1.86 2.28-7.52-5.68-11.14-5.88-20.82-6l-17.44.11c-1.71 0-2.28.29-2.57 2.14-1.84 13.03-3.62 28.26-4.53 39.36-.3 3.27.69 5.55 2.53 7.96l1.48 1.92c.14.85-1.43 2.28-2.22 1.93-2.34-2.63-5.1-5.54-8.85-9.3-3.47-3.48-6.73-6.6-9.99-9.58-.49-1.07.94-2.49 1.93-2.21l2.2 1.63c1.28.99 2.21.35 2.43-1.43.74-6.69 3.9-26.69 3.99-32.03 0-1 .01-2.13-.63-2.77-1.77-1.78-3.35.08-5.42 2.15l-9.08 9.06c-7.58 7.56-7.16 8.41-4.26 12.18l1.56 1.99c.14.85-1.36 2.21-2.21 1.93-3.19-3.48-6.3-6.75-9.42-9.87-3.12-3.12-6.52-6.39-9.21-8.8-.28-.85 1.08-2.35 1.93-2.21l1.13.85c3.83 2.84 4.68 3.26 12.26-4.3l26.6-26.53c7.58-7.56 7.08-8.34 4.26-12.18Zm-82.09-20.97c6.64-9.77 16.12-14.44 25.5-15.03 9.32-.51 19.34 2.77 27.72 8.46 4.73 3.21 9.88 7.94 13.1 11.59l1.98 2.08c-1.14 2.03-4.33 7.07-7.7 13.82-1.04.27-2.58-.66-2.77-1.64 2.17-6.22 3.15-15.69-7.8-23.13-10.53-7.16-26.26-6.86-37.9 10.26-12.1 17.79-6.97 33.97 3.73 41.25 10.45 7.1 19.78 3.19 25.8-.66 1.26-.25 2.36.99 2.26 2.02-4.39 5.2-10.37 9.19-12.61 9.99-1.11-.51-2.33-.85-3.42-1.22-2.22-.66-8.91-3.13-14.3-6.79-8.21-5.58-14.13-12.04-17.43-20.03-3.71-8.99-3.6-20.03 3.84-30.97Zm-75.86-1.43 2.95.78c2.86.73 4.2.45 6.94-1.97 2.18-1.9 5.38-5.11 9.54-9.21l27.3-27.13c2.43-2.45 4.34-4.25 4.77-5.94 3.49.8 8.21-1.62 8.39-1.53.73.33 1.06.81 1.22 1.44-.41 4.8-1.17 9.67-1.57 14.47l-4.22 44.51c-.68 7.12-.47 7.88 3.78 10.9l1.25.89c.44.97-.26 2.54-1.11 2.71-3.67-1.87-7.01-3.49-11.76-5.63-3.93-1.77-8.04-3.4-11.28-4.75-.52-.79.13-2.49.93-2.79l2.14.63c3.5 1.02 4.21.68 4.58-3.81l1.35-14.46c.3-2.86-.07-3.02-2.63-4.18l-12.62-5.69c-2.38-1.07-2.29-1.03-4.23 1.08l-8.64 9.4c-4.28 4.61-3.17 5.33-.04 7.41l2.44 1.66c.35.93-.49 2.55-1.39 2.59-2.84-1.5-6.32-3.07-10.03-4.85a168.16 168.16 0 0 0-9.18-3.8c-.43-.75.1-2.17 1.11-2.71Zm-57.16-13.34 3.05.19c4.77.28 5.68.39 8.06-9.84l8.53-36.59c2.38-10.23 1.57-10.73-2.86-12.49l-2.64-1.03c-.57-.65-.11-2.62.86-2.81 4.84 1.33 9.21 2.46 13.7 3.5 4.3 1 8.72 1.93 13.06 2.73.79.6.43 2.59-.47 2.9l-2.24-.11c-4.77-.28-5.7-.29-8.08 9.94l-8.05 34.53c-1.15 4.92-1.78 8.51-.7 10.52.85 1.65 2.23 2.8 10.04 4.62 10.84 2.53 12.52 2.4 19.37-6.69 1.09-.26 2.58.39 2.89 1.3-1.74 3.95-5.63 10.93-7.42 13.31-4.06-1.15-12.43-3.21-23.37-5.75l-10.16-2.37c-4.98-1.16-9.89-2.2-14.04-2.96-.69-.57-.52-2.61.47-2.9Zm-59.66-4.4 2.22-.16c4.74-.31 5.66-.55 6.33-11.24l2.32-36.89c.61-9.68.58-10.89-4.09-11.69l-2.58-.47c-.66-.75-.55-2.36.28-2.82 4.53-.12 11.87-.17 22.88.53 8.41.53 15.06 1.76 19.4 4.66 4.43 3.01 6.58 7.19 6.18 13.54-.37 5.95-4.96 10.21-12.12 12.09-.41.08-.63.37-.64.57-.01.2.17.42.76.66 7.53 1.69 15.73 7.16 15.01 18.55-.29 4.64-2.11 9.58-6.95 13.02-4.95 3.64-11.67 4.93-23.08 4.22-4.4-.28-8.59-.84-12.39-1.08-4.4-.28-9.12-.47-13.53-.55-.78-.45-.76-2.27-.02-2.94Zm-4.24 20.24c71.39-2.38 139.83 17.96 197.92 58.79 31.1 21.86 57.94 48.74 79.77 79.87 17.03 24.3 30.63 50.75 40.41 78.61a322.055 322.055 0 0 1 15.17 62.88c.14.13.29.26.43.4l1.13 13.05c.18 1.88.34 3.75.49 5.63 1.39 18.07 1.27 36.46-.37 54.69-.79 8.73-1.94 17.57-3.44 26.26-1.39 8.06-3.09 16.05-5.08 23.97l.12.19c-.1.16-.21.36-.32.59-4.83 19-11.38 37.53-19.58 55.32-4.25 9.23-8.95 18.24-14.04 27.02l-1.62 2.89c-.12.14-.24.3-.36.46a324.012 324.012 0 0 1-35.72 48.79c-30.27 34.16-68.22 62.17-109.76 81-42.11 19.1-87.68 28.87-133.72 28.87-13.72 0-27.49-.87-41.21-2.62-32.21-4.1-63.43-12.94-92.8-26.25-41.9-19-78.67-46.25-109.27-81a326.594 326.594 0 0 1-51.54-79.15c-11.79-25.56-20.2-52.5-25.01-80.07-4.64-26.61-5.92-53.84-3.82-80.95.46-5.98 1.08-11.9 1.83-17.61 2.9-22.03 8.12-43.85 15.51-64.83 9.75-27.68 23.27-53.96 40.21-78.14 21.87-31.21 48.78-58.15 79.97-80.06 51.63-36.26 112.04-56.53 174.7-58.61Zm-68-79.46c.16-.32.55-.47 1.05-.53.4-.05.81 0 1.04.28.8 2.45 2.21 2.38 8.98 1.56l40.63-4.9c4.88-.59 6.34-1.07 7.25-3.52.38-.25.75-.5 1.15-.54.6-.07 1.12.07 1.36.35-.5 4.23-.26 12.95.43 16.12-.4.86-2.07 1.27-3.05.67-2.24-7.67-4.36-9.34-15.01-8.06l-5.68.68c-2.59.31-2.67.52-2.16 4.74l5.22 43.32c1.28 10.63 2.21 10.82 6.95 10.76l3.63-.03c.78.62.9 2.44.15 2.93-5.8.5-10.29.94-14.68 1.46-4.38.53-9.05 1.19-15.4 2.16-.85-.3-1.19-2.3-.55-2.88l4.12-1c4.61-1.17 5.49-1.37 4.21-12L380 38.54c-.51-4.21-.63-4.4-3.22-4.09l-5.58.67c-9.16 1.1-11.72 2.53-14.42 11.1-.62.68-2.75.64-3.27-.32 1.04-5.62 1.78-12.02 2.06-15.61Zm-48.66 14.56c22.04-7.14 38.56 5.12 44.23 22.61 6.13 18.93-3.6 37.69-22.87 43.94-21.56 6.99-38.92-4.27-44.46-21.37-6.35-19.6 3.07-38.68 23.1-45.18Zm-82.69 37.22c19.93-11.81 38.75-3.47 48.12 12.35 10.14 17.12 4.77 37.56-12.67 47.89-19.5 11.55-38.9 4.38-48.07-11.09-10.5-17.73-5.51-38.41 12.62-49.15Zm-84.28 68.13c3.08-3.33 8.17-8.61 16.35-16.02 6.25-5.65 11.77-9.56 16.88-10.64 5.25-1.07 9.75.31 14.01 5.03 4 4.42 3.85 10.68.2 17.11-.23.34-.18.7-.04.85.14.15.42.16 1-.09 6.47-4.21 16.11-6.26 23.76 2.2 3.12 3.44 5.39 8.2 4.48 14.07-.85 6.08-4.61 11.8-13.09 19.47-3.27 2.96-6.6 5.56-9.42 8.12-3.27 2.96-6.7 6.2-9.84 9.31-.87.24-2.16-1.04-2.11-2.04l1.43-1.7c3.09-3.61 3.55-4.44-3.63-12.38l-24.8-27.41c-6.51-7.19-7.39-8.02-11.23-5.23l-2.14 1.52c-.99-.05-2.08-1.25-1.82-2.16Zm-52.81 65.27c12.3-19.63 32.85-20.85 48.42-11.09 16.86 10.56 21.46 31.19 10.7 48.36-12.04 19.21-32.57 21.73-47.8 12.19-17.46-10.94-22.5-31.61-11.32-49.46Zm-36.52 73.41c1.57-4.44 4.04-8.99 5.88-12.07 1.25-2.01 2.6-4.61 3-5.75 2.89.92 7.98 1.98 15.57 4.13.79.81.14 2.92-.88 3.09-9.97-1.19-16.92 3.9-20.23 13.26-5.89 16.64 3.35 28.96 19.54 34.69 7.62 2.7 16.41 3.9 24.31.95 7.9-2.95 12.58-9.8 14.55-15.38 1.61-4.54 1.82-7.55.79-9.19-.66-.87-2.27-1.76-5.7-2.98l-3.43-1.21c-6.76-2.4-7.36-2.5-10.65 3.46l-1.78 3.2c-.9.43-2.52-.15-2.73-1.07 1.5-3.62 3.2-8.12 5.51-14.65 1.51-4.25 2.55-7.5 3.8-11.64.81-.78 2.46-.3 2.83.79l-.32 1.8c-.67 3.7-.11 4.54 5.7 6.59l5.52 1.96c3.33 1.18 5.97 1.58 7.47.09.48-.15 1.24.12 1.39.6-.37 1.04-.59 2.88-.84 4.81-.65 6.37-2.02 13.86-3.92 19.25-4.02 11.35-10.85 20.95-20.78 25.41-7.78 3.52-16.75 3.43-24.75.6S55.26 331.15 51.18 323c-4.76-9.24-5.21-21-.56-34.14Zm-21.9 97.24 2.7-18.96c.9-6.35 1.62-12.13 1.6-13.45 1.76-.16 9.74.37 14.12.39.74.51.66 2.52-.05 3.23-6.02.77-8.64 1.91-9.99 4.96-.92 2.2-1.65 5.13-2.03 7.81l-.95 6.65c-.61 4.27-.41 4.3 5.29 5.11l16.9 2.4c2.6.37 2.71.28 3.04-2l.68-4.77c1.23-8.64 1.34-10.14-2.83-11.65l-3.3-1.18c-.59-.89-.32-2.78.55-3.16 2.69.48 6.26 1.19 9.96 1.72 3.8.54 7.33.84 10.54 1.19.63.6.36 2.48-.35 3.19l-4.1.13c-4.3.1-4.74 1.76-5.97 10.4l-.68 4.77c-.33 2.28-.14 2.41 2.36 2.77l12.7 1.8c5.1.72 8.73 1.04 10.64-.21 1.57-.99 2.51-2.58 3.79-10.91 1.89-12.59-.6-15.18-8.2-19.8-.57-.99-.03-2.64 1.05-3.09 4.12 1.19 11.4 4.46 13.91 6.23-.82 4.34-2.13 12.86-3.78 24.48l-1.61 11.32c-.62 4.37-1.38 10.44-1.82 14.94-.51.74-2.33.58-2.93-.21l.12-3.73c.16-4.74 0-5.67-10.61-7.18l-37.2-5.28c-10.6-1.51-11.13-.67-12.39 3.91l-.43 1.56c-.8.6-2.58.24-2.87-.61.74-3.74 1.5-8.4 2.12-12.77Zm.52 58.19-.3 2.21c-.71.7-2.52.61-2.93-.19.19-4.41.28-8.93.26-13.54-.01-4.41-.13-8.93-.34-13.34.4-.8 2.22-.91 2.93-.21l.31 2.21c.62 4.71.93 5.61 11.63 5.58l37.57-.11c10.71-.03 11.01-.93 11.6-5.65l.3-2.21c.71-.7 2.52-.61 2.93.19-.19 4.41-.28 8.93-.26 13.34.01 4.41.13 9.13.34 13.54-.4.8-2.22.91-2.93.21l-.31-2.21c-.62-4.71-.93-5.61-11.63-5.58l-37.57.11c-10.71.03-11.01.93-11.6 5.65Zm11.26 84.54.14 2.11c-.39.78-2.18 1.07-2.81.36-1.77-7.03-3.37-14.9-4.97-24.59-1.55-9.4-1.86-16.26-.45-23.91 2.43-12.6 11.61-22.75 26.46-25.19 11.06-1.82 23.32 1.75 31.61 12.99 4.74 6.44 7.34 14.75 8.82 23.76.99 6.04 1.16 10.79 1.76 14.45.62 3.76 1.45 8.2 2.37 12.52-.27.86-2.05 1.25-2.86.67l-.66-2.13c-1.36-4.55-1.81-5.39-12.37-3.66l-36.47 6c-9.57 1.57-10.95 1.9-10.58 6.62Zm46.6 109.79c-.33 1.39.2 4.27.55 5.66l.4 1.48c-.23.9-2.08 1.71-2.8.94-1.33-3.59-3.88-8.49-4.99-10.73-.94-1.89-2.1-4-3.35-6.06 3.13-3.46 9.67-18.91 11.54-23.76l5.31-13.83c2.29-5.84 7.73-18.96 7.82-20.12-.41-.14-.86.09-2.3.81l-17.64 8.76c-6.78 3.37-15.06 7.59-16.97 10.56-.96 1.48-.88 3.23-.03 5.61l.75 2.2c-.23 1.12-1.99 1.89-2.71 1.12-1.56-3.59-3.12-6.96-4.86-10.46-1.92-3.86-3.17-6.15-4.96-9.3.09-.94 1.54-1.89 2.53-1.48l1.48 1.84c1.21 1.53 2.24 2.92 4 2.83 3.43-.14 11.3-4.05 18.44-7.6l21.62-10.74c2.71-1.35 13.39-6.65 15.33-7.95 1.35.22 2.52 1.66 2.96 2.78-1.19 2.38-2.69 5.93-6.9 16.08L98.61 610.3c-3.84 9.07-5.71 13.7-6.31 15.9.13.27 1.13-.22 5.92-2.61l17.64-8.76c6.78-3.37 15.06-7.59 17.02-10.47.96-1.48.83-3.32-.01-5.7l-.71-2.11c.23-1.12 2-1.89 2.71-1.12 1.47 3.41 3.12 6.96 4.82 10.37 1.88 3.77 3.17 6.15 4.91 9.21-.1.94-1.54 1.89-2.53 1.48l-1.43-1.75c-1.21-1.53-2.28-3.01-4.04-2.92-3.38.23-11.25 4.13-18.4 7.68l-21.44 10.65c-7.06 3.5-8.55 4.13-9.65 8.49Zm41.55 47.24c-3.28 1.08-5.79 1.81-6.95 3.12-2.75-2.3-8.05-2.29-8.17-2.45-.5-.63-.58-1.21-.43-1.84 2.54-4.09 5.43-8.08 7.98-12.17l24.01-37.72c3.84-6.03 4-6.8 1.59-11.42l-.7-1.36c.05-1.07 1.39-2.14 2.22-1.91 2.41 3.34 4.65 6.3 7.91 10.37 2.7 3.37 5.61 6.68 7.88 9.36.11.94-1.25 2.16-2.1 2.07l-1.62-1.53c-2.65-2.5-3.44-2.52-5.81 1.31l-7.78 12.26c-1.56 2.41-1.31 2.72.44 4.91l8.65 10.8c1.63 2.04 1.57 1.96 4.26.96L172 666.2c5.91-2.16 5.25-3.3 3.4-6.58l-1.42-2.59c.11-.99 1.59-2.05 2.41-1.67 1.85 2.63 4.23 5.61 6.72 8.88 2.07 2.58 4.09 4.95 6.44 7.56.04.86-1.08 1.89-2.22 1.91l-2.27-2.03c-2.21-1.95-3.53-2.31-7.07-1.4-2.8.7-7.12 2.1-12.69 3.87l-36.65 11.74Zm80.18 26.98c2.08-5.04 5.24-16.71-2.09-23.26-5.69-5.08-12-4.48-16.1.11-3.83 4.29-4.91 9.56-2.12 17.74l1.6 4.68c2.79 8.17 3.62 17.18-2.43 23.96-6.66 7.46-17.85 8.84-28.77-.91-3.89-3.47-5.93-6.92-8.84-10.73.66-2.39 4.35-8.03 7.51-11.57.98-.34 2.39.78 2.6 1.91-2.38 4.92-4.26 12.3 2.09 17.98 5.99 5.34 11.95 3.63 15.52-.36 2.83-3.16 3.68-8.49 1.1-15.54l-2.42-6.63c-2.58-6.9-3.79-16.38 3-23.99 7.67-8.59 19.63-8.88 30.48.81 6.88 6.15 8.76 11.88 9.44 14.12-.07 2.78-3.74 8.85-7.98 13.45-1.12.35-2.46-.71-2.59-1.77Zm47.43 49.94c-.4 2.71-1.33 5.28-2.8 7.69a20.518 20.518 0 0 1-5.54 6.03c-2.22 1.6-4.63 2.72-7.21 3.36-2.58.64-5.22.76-7.92.38s-5.25-1.3-7.65-2.76c-2.4-1.46-4.39-3.3-5.97-5.53a20.683 20.683 0 0 1-3.3-7.21c-.62-2.58-.73-5.23-.33-7.95.4-2.71 1.33-5.28 2.8-7.69s3.32-4.42 5.54-6.03c2.23-1.6 4.63-2.72 7.21-3.36 2.58-.64 5.22-.77 7.92-.38 2.7.38 5.25 1.3 7.65 2.76s4.39 3.3 5.97 5.52c1.58 2.22 2.68 4.63 3.3 7.21.62 2.58.73 5.23.33 7.95Zm63.77 10.94c.59-5.43-.11-13.01-7.97-16.21-7.4-3-12.43.62-14.44 5.58-1.6 3.93-.62 9.23 4.15 14.98l4.48 5.42c4.72 5.62 9.03 14.13 5.19 23.58-4.33 10.67-15.45 14.98-28.87 9.54-8.51-3.46-12.18-8.21-13.58-10.09-.87-2.64.55-9.59 3-15.35.93-.71 2.55-.17 3.02.79-.27 5.45.66 17.49 9.73 21.17 7.03 2.85 12.76.16 15.07-5.54 2.17-5.33 1.41-10.65-3.93-17.4l-3.07-3.86c-5.34-6.75-9.13-14.93-5.71-23.36 3.76-9.27 13.8-14.35 27.3-8.87 4.81 1.95 7.87 4.5 11.88 7.11.18 2.47-1.4 9.02-3.18 13.42-.8.65-2.51.07-3.07-.92Zm76.84 37.81c-2.22 10.99-9.88 21.19-23.28 24.97-7.67 2.16-16.32 1.64-25.23-.16-5.97-1.21-10.45-2.73-14.07-3.46-3.72-.75-8.14-1.54-12.48-2.22-.7-.55-.44-2.36.38-2.91l2.21.14c4.72.34 5.66.22 7.78-10.28l7.33-36.23c1.92-9.5 2.1-10.91-2.41-12.23l-2.01-.61c-.58-.63-.23-2.42.66-2.75 7.17.83 15.05 2.12 24.64 4.06 9.29 1.88 15.79 4.02 22.41 8.04 10.86 6.73 17.06 18.91 14.07 33.66Zm57.55 28.42c-4.71 3.92-11.3 5.62-22.68 5.58-4.39-.02-8.59-.33-12.38-.35-4.39-.02-9.09.07-13.48.26-.8-.41-.89-2.22-.19-2.93l2.2-.3c4.69-.59 5.59-.89 5.63-11.59l.13-36.96c.03-9.7-.06-10.91-4.75-11.43l-2.59-.31c-.7-.71-.69-2.32.11-2.83 4.49-.39 11.78-.87 22.77-.83 8.39.03 15.07.86 19.56 3.5 4.58 2.74 6.96 6.79 6.94 13.15-.02 5.96-4.33 10.49-11.33 12.79-.4.1-.6.4-.6.6 0 .2.2.41.8.61 7.58 1.24 16.05 6.22 16.01 17.63-.02 4.65-1.53 9.69-6.14 13.41Zm66.66-8.72c-3.99 4.64-10.22 7.4-21.45 9.24-4.34.71-8.52 1.09-12.26 1.7-4.34.71-8.95 1.57-13.25 2.47-.85-.27-1.24-2.05-.67-2.86l2.12-.65c4.53-1.35 5.37-1.8 3.64-12.36l-5.97-36.48c-1.57-9.57-1.86-10.75-6.57-10.49l-2.61.12c-.8-.58-1.07-2.18-.36-2.81 4.37-1.12 11.48-2.8 22.31-4.57 8.28-1.35 15.01-1.64 19.87.23 4.97 1.95 7.99 5.55 9.02 11.83.96 5.88-2.54 11.06-9.06 14.48-.38.16-.53.5-.49.7.03.2.26.37.89.47 7.68-.03 16.86 3.48 18.7 14.75.75 4.58.09 9.81-3.84 14.24Zm68.88-15.69c-4.03 1.19-12.17 3.9-22.73 7.57l-9.81 3.4c-4.81 1.67-9.49 3.4-13.39 4.97-.89-.12-1.83-1.93-1.15-2.7l2.66-1.46c4.17-2.3 4.98-2.69 1.54-12.62l-12.32-35.49c-3.44-9.92-4.39-9.91-9.06-9.04l-2.77.54c-.83-.25-1.49-2.16-.77-2.83 4.78-1.45 9.06-2.82 13.4-4.33 4.15-1.44 8.36-3.01 12.44-4.64.98.09 1.74 1.96 1.15 2.7l-1.94 1.1c-4.17 2.3-4.95 2.79-1.51 12.71l11.62 33.49c1.66 4.77 3.04 8.14 5.01 9.27 1.59.94 3.37 1.18 10.91-1.44 10.47-3.63 11.81-4.63 12.74-15.97.78-.8 2.38-1.04 3.12-.44.64 4.27 1.08 12.24.84 15.21Zm42.68-35.51c-.8 2.53-2.07 4.85-3.81 6.96-1.74 2.1-3.85 3.8-6.35 5.09-2.5 1.29-5.11 2.02-7.83 2.21-2.72.19-5.35-.12-7.88-.94-2.53-.82-4.84-2.11-6.95-3.86-2.11-1.76-3.81-3.89-5.1-6.4-1.29-2.51-2.04-5.14-2.25-7.87-.21-2.74.09-5.37.89-7.9.8-2.53 2.07-4.85 3.8-6.96 1.74-2.11 3.85-3.8 6.35-5.09 2.5-1.29 5.11-2.02 7.83-2.21 2.72-.19 5.35.12 7.88.94 2.53.82 4.85 2.11 6.95 3.86 2.11 1.75 3.81 3.89 5.1 6.4 1.29 2.51 2.04 5.14 2.25 7.87.21 2.73-.09 5.37-.89 7.9Zm76.96-42.44c-4.62 4.36-11.16 9.83-17.66 14.87-6.18 4.8-12.18 8.19-17.15 8.98-5.71.99-11.55-.49-16.02-6.23-5.7-7.34-2.93-15.37-.29-19.98.29-.61-.37-1.12-1.05-1.36-14.7-5.84-23.93-9.54-30.07-9.76-3.7-.19-6.37 1.12-7.38 1.77-.64-.01-1.33-.89-1.4-1.47.76-.98 2.08-2.39 4.85-4.54 7.6-5.91 14.14-6 24.73-2.34 4.74 1.69 10.37 4.35 14.68 5.98 3.29 1.29 4.4.93 7.02-1.1 2.38-1.85 2.39-1.99 1.09-3.66l-7.93-10.21c-6.57-8.45-7.47-8.14-11.56-5.72l-1.93 1.11c-.99-.13-2.02-1.62-1.64-2.44 3.61-2.55 7.23-5.24 10.72-7.95 3.48-2.71 6.99-5.56 10.5-8.55.88-.17 2.23 1.08 1.96 2.19l-1.56 1.59c-3.35 3.37-3.88 4.16 2.69 12.62l22.68 29.19c5.95 7.66 6.77 8.55 10.8 6.06l2.24-1.36c.99.13 1.98 1.4 1.66 2.29Zm48.92-51.33c-2.68 2.72-5.87 6.19-8.8 9.49l-12.69 14.35c-4.25 4.81-8.03 9.23-8.74 10.34-1.55-.84-7.93-5.67-11.58-8.1-.34-.84.84-2.47 1.82-2.67 5.45 2.68 8.26 3.16 11.07 1.35 1.98-1.33 4.2-3.38 6-5.41l4.45-5.03c2.86-3.23 2.7-3.36-1.61-7.18l-12.79-11.31c-1.97-1.74-2.11-1.73-3.64 0l-3.19 3.61c-5.78 6.54-6.7 7.73-4.04 11.28l2.11 2.8c0 1.07-1.26 2.5-2.2 2.34-1.98-1.88-4.57-4.44-7.37-6.92-2.88-2.54-5.66-4.73-8.15-6.8-.2-.84 1.06-2.27 2.05-2.47l3.49 2.15c3.64 2.28 4.92 1.14 10.7-5.4l3.19-3.61c1.53-1.73 1.44-1.94-.45-3.61l-9.61-8.5c-3.86-3.41-6.72-5.67-9-5.68-1.86-.04-3.51.77-9.17 7.02-8.51 9.47-7.86 13-4.05 21.05-.07 1.14-1.42 2.22-2.58 2-2.78-3.26-7.07-10-8.18-12.86 3.08-3.17 8.86-9.57 16.64-18.36l7.57-8.57c2.92-3.31 6.9-7.96 9.74-11.47.83-.33 2.26.8 2.33 1.79l-2.15 3.05c-2.75 3.87-3.12 4.74 4.91 11.83l28.15 24.89c8.02 7.09 8.92 6.68 12.5 3.55l1.21-1.07c1-.06 2.29 1.22 2.06 2.09Zm43.7-70.12c-2.18 3.84-4.32 7.81-6.08 11.31-.75.5-2.55-.41-2.65-1.27l.58-1.63c1.62-4.5 1.98-5.33-7.33-10.62l-10.62-6.04c-2.46-1.4-2.78-1.24-5.31 3.21l-11.59 20.41c-2.53 4.45-2.5 4.81-.04 6.21l10.63 6.04c9.31 5.29 10.02 4.65 12.87.85l1.35-1.77c.79-.36 2.49.72 2.45 1.62-2.46 3.91-4.77 7.79-6.95 11.62-2.18 3.84-4.32 7.81-6.13 11.4-.75.5-2.55-.41-2.65-1.27l.63-1.72c1.63-4.5 1.98-5.33-7.32-10.62l-32.67-18.56c-9.31-5.29-10.02-4.65-12.87-.85l-1.35 1.77c-.96.26-2.49-.72-2.45-1.62 2.35-3.74 4.67-7.61 6.85-11.45 2.28-4.01 4.42-7.99 6.42-11.92.75-.5 2.38.31 2.65 1.27l-.83 2.07c-1.8 4.4-1.98 5.33 7.32 10.62l12.91 7.33c2.37 1.35 2.69 1.18 5.22-3.26l11.59-20.41c2.53-4.45 2.5-4.81.13-6.16l-12.91-7.33c-9.31-5.29-9.93-4.6-12.78-.8l-1.84 2.42c-.96.26-2.49-.72-2.45-1.62 2.75-4.43 5.07-8.31 7.25-12.15 2.18-3.84 4.32-7.81 6.03-11.22.75-.5 2.38.31 2.65 1.27l-.52 1.32c-1.71 4.45-1.9 5.38 7.41 10.67l32.67 18.56c9.31 5.29 10.02 4.65 12.87.85l1.35-1.77c.79-.36 2.49.72 2.45 1.62-2.35 3.74-4.77 7.79-6.95 11.62Zm33.74-82.12c-.12.38-.34.73-.69.83-2.56-.3-3.08 1.01-5.17 7.5l-12.53 38.96c-1.5 4.68-1.68 6.2.17 8.06.07.44.14.89.02 1.27-.18.57-.53.99-.88 1.09-3.63-2.22-11.66-5.65-14.83-6.35-.62-.72-.29-2.41.66-3.05 7.9 1.17 10.31-.06 13.59-10.27l1.75-5.44c.8-2.48.64-2.64-3.4-3.94l-41.54-13.36c-10.19-3.28-10.76-2.51-12.68 1.82l-1.49 3.31c-.89.45-2.59-.2-2.73-1.09 1.97-5.48 3.45-9.74 4.8-13.94 1.35-4.2 2.7-8.72 4.47-14.89.63-.64 2.58-.12 2.85.71l-.81 4.17c-.87 4.67-1.05 5.56 9.15 8.84l41.54 13.36c4.04 1.3 4.26 1.27 5.06-1.22l1.72-5.35c2.83-8.78 2.6-11.7-4.06-17.74-.36-.85.57-2.77 1.66-2.84 4.67 3.29 10.17 6.64 13.32 8.39.23.28.2.7.05 1.17Zm4.48-38.94c-4.72.97-9.6 1.61-14.32 2.58l-43.9 8.53c-7.02 1.36-7.69 1.78-9.39 6.7l-.5 1.45c-.81.7-2.51.46-2.92-.3.76-4.05 1.37-7.71 2.08-12.88.59-4.27.99-8.67 1.37-12.16.61-.73 2.43-.58 2.94.1v2.23c0 3.65.54 4.22 4.94 3.31l14.25-2.79c2.83-.52 2.88-.92 3.26-3.7l1.89-13.71c.36-2.58.34-2.48-2.24-3.75l-11.46-5.63c-5.63-2.8-6.01-1.54-7.11 2.06l-.9 2.81c-.8.6-2.58.25-2.87-.6.64-3.15 1.16-6.93 1.82-10.99.45-3.28.78-6.37 1.06-9.88.59-.63 2.11-.52 2.92.3l.09 3.05c.1 2.95.75 4.15 3.85 6.1 2.44 1.55 6.42 3.72 11.54 6.55L830.58 483c3.04 1.63 5.3 2.96 7.04 2.89.22 3.57 3.87 7.42 3.84 7.62-.11.79-.48 1.25-1.03 1.58Zm-9.56-60.43c-.83-.35-1.16-2.34-.6-3.18 5.75-1.97 8.07-3.62 8.78-6.88.46-2.34.58-5.36.41-8.06l-.42-6.71c-.27-4.3-.47-4.29-6.22-3.93l-17.03 1.06c-2.62.16-2.72.27-2.57 2.57l.3 4.8c.54 8.71.74 10.2 5.13 10.83l3.47.49c.76.76.87 2.66.1 3.21-2.73.07-6.37.1-10.1.33-3.83.24-7.34.66-10.56.96-.74-.46-.86-2.36-.3-3.2l3.99-.95c4.19-.96 4.29-2.68 3.74-11.39l-.3-4.8c-.14-2.3-.35-2.39-2.87-2.23l-12.8.8c-5.14.32-8.76.75-10.38 2.36-1.34 1.29-1.93 3.04-1.51 11.45.69 12.72 3.65 14.74 12.04 17.74.76.86.57 2.58-.4 3.24-4.27-.34-12.07-2.06-14.88-3.29-.08-4.42-.51-13.03-1.24-24.74l-.71-11.41c-.28-4.4-.76-10.5-1.24-15 .35-.83 2.16-1.04 2.91-.38l.63 3.68c.8 4.67 1.16 5.55 11.84 4.89l37.5-2.34c10.68-.67 11.03-1.59 11.34-6.34l.1-1.61c.66-.74 2.48-.76 2.94.02.04 3.82.23 8.53.5 12.93l1.19 19.12c.4 6.41.87 12.2 1.15 13.49-1.69.51-9.61 1.61-13.91 2.48Z" style="fill:#fff"/><path d="M735.83 260.55c2.13 3.87 5.71 6.59 9.68 7.95 1.88.68 2.41.39 3.51-1.59 2.2-3.96 4.2-8.27 5.63-12.38 2.32-6.66 2.65-13.6 2.41-14.04-.24-.44-1.26-1.02-2.18-1.44-3.77-1.82-9.58-1.7-14.01.74-7.43 4.09-9.26 13.12-5.05 20.76ZM492.05 807.14c-4.33.71-4.43 1.34-4.11 3.33l2.35 14.35c1.48 9.07 3.07 12.6 11.64 11.2 6.8-1.11 12.07-6.58 10.62-15.45-1.68-10.27-9.57-15.22-20.51-13.43ZM171.22 156.5c1.76 1.95 2.05 1.82 5.03-.87 6.99-6.33 7.68-11.99 1.58-18.73-5.96-6.59-13.17-4.84-17.78-.67-3.72 3.36-3.81 3.72-1.09 6.71l12.26 13.56Z" style="fill:#fff"/><path d="M192.69 319.87c-4.61-29.33 1-54.16 13.87-72.22h-27.04c-.47.64-.95 1.27-1.42 1.92-16.91 23.44-30.48 49-40.36 75.98l56.04.04c-.42-1.91-.8-3.82-1.1-5.73ZM545.99 312.34c2.61.25 5.24.49 7.94.72-2.66-.29-5.3-.53-7.94-.72ZM409.56 284.76c-.16-.01-.28-.01-.38 0 4.54 2.06 10.39 4.36 17.87 6.75-5.9-2.15-11.74-4.4-17.49-6.75ZM494.53 255.51c-7.79 5.87-15.92 11.43-24.3 16.42-11.69-7.36-23.34-15.38-34.17-24.27h-76.72c1.06.69 2.14 1.38 3.23 2.08 34.84 22.32 79.4 39.44 120.06 47.34 26.83 5.21 54.2 3.91 81.31 7.42 29.66 3.84 59.34 10.92 87.65 21.47l81.14.06a314.413 314.413 0 0 0-40.52-76.44c-.47-.65-.95-1.28-1.42-1.92H504.5c-3.51 2.89-6.9 5.54-9.97 7.86Z"/><path d="M541.69 203.97c-5.63 15.18-22.52 31.61-37.19 43.69h186.29c-22.37-30.52-49.72-56.59-81.34-77.5-1.12-.74-2.24-1.46-3.36-2.18-20.61-.06-41.98-.13-63.64-.18 3.93 11.44 3.33 25.15-.76 36.17ZM306.7 220.7c21.28 6.13 35.07 15.6 52.63 26.96h76.72c-6.9-5.66-13.47-11.68-19.5-18.11-7.27-7.76-14.58-16.52-18.1-26.71-3.8-11.02-4.16-24.24-.22-35.3-52.96-.04-100.37 0-133.65.2-1.13.73-2.26 1.45-3.39 2.19-31.76 20.95-59.22 47.1-81.67 77.73h27.04c19.77-27.72 56.68-39.47 100.13-26.96Z" style="fill:#282882"/><path d="M182.58 610.18c-1.04-2.03-2.1-4.49-1.16-6.74 9.78-11.85 19.77-23.55 29.86-35.19h-62.95c.14.3.28.61.42.91 13.43 28.44 31 54.67 52.22 78h10.88c-11.55-11.8-23.77-26.23-29.27-36.99ZM675.88 615.92c-6.28 2.61-16.48 10.14-23.07 13.87a928.274 928.274 0 0 1-32.18 17.38h48.64a319.388 319.388 0 0 0 28.93-36.91c-2.36.64-4.51 1.19-5.8 1.56-4.67 1.34-12.52 2.44-16.52 4.1ZM708.84 593.25h-.04.04Z"/><path d="M552.84 727.92c41.79-16.72 79.16-42.09 109.96-73.83 1.99-2.06 3.95-4.15 5.89-6.26.2-.22.39-.44.59-.66h-48.64c-120.3 61.86-281.87 109.8-393.78 14.19-4.35-3.72-9.61-8.67-15.02-14.19h-10.88c.2.22.39.44.59.66 16.87 18.45 35.98 34.88 56.69 48.87a315.478 315.478 0 0 0 59.23 31.22h235.36Z" style="fill:#282882"/><path d="M398.23 167.54c3.76-10.56 11.42-19.14 23.76-21.92 17.17-3.86 31.42 1.71 43.34 14.09 1.65 1.71 3.16 4.36 4.68 5.86.2.19.21.35.58.25 3.63-5.86 9.69-11.07 15.41-14.9 10.17-6.83 22.5-7.95 34.2-4.86 11.58 3.06 18.74 11.5 22.26 21.74 21.66.06 43.03.12 63.64.18-51.23-32.95-110.23-50.33-171.05-50.33h-2.39c-2.59.02-5.21.07-7.8.16-56.89 1.84-112.22 19.09-160.28 49.92 33.28-.19 80.69-.24 133.65-.2Z"/><path d="M258.49 514.55c.26-6.96.19-20.73 5.99-25.67.19-.16.38-.31.56-.44H123.21c.07.39.13.77.2 1.16 4.81 27.18 13.2 53.64 24.93 78.66h62.95c15.62-18.01 31.48-35.83 47.22-53.71ZM747.34 381.35a315.28 315.28 0 0 0-13.99-53.66c-.2-.56-.41-1.11-.62-1.67l-81.14-.06c34.88 13 67.67 31.29 95.75 55.39ZM265.97 403.94zM193.79 325.6l-56.04-.04c-.2.56-.42 1.11-.62 1.67a313.774 313.774 0 0 0-16.12 67.62c-.52 4.2-.96 8.53-1.32 12.89h133.28c-27.46-16.9-52.01-49.86-59.17-82.13Z" style="fill:#282882"/><path d="M270.7 488.11c.28-14.59 0-59.48 0-59.48l-2.53-13.21c-4.96-1.69-10.79-4.97-15.14-7.64-.02-.01-.04-.03-.06-.04H119.69l-.12 1.41c-2.1 26.59-.87 53.26 3.64 79.29h141.83c2.26-1.67 4.07-1.4 5.67-.33Z" style="fill:#fff"/><path d="M270.7 488.11c.28-14.59 0-59.48 0-59.48l-2.53-13.21c-4.96-1.69-10.79-4.97-15.14-7.64-.02-.01-.04-.03-.06-.04H119.69l-.12 1.41c-2.1 26.59-.87 53.26 3.64 79.29h141.83c2.26-1.67 4.07-1.4 5.67-.33Z" style="fill:#fff;opacity:.56"/><path d="M423.56 750.2c4.44.17 8.87.24 13.27.22 41.02-.17 80.14-8.15 116.01-22.5H317.48c32.85 13.08 68.53 20.88 106.08 22.28ZM459.94 619.32c-6.21-1.12-12.4-2.35-18.56-3.68-38.24-8.27-79.98-21.8-116.24-42.35l.36.22-66.37 100.01c48.32 29.7 104.36 36.81 161.05 30.58l39.77-84.78ZM469.93 621.03l.23.05-38.57 81.6c71.67-10.08 143.61-40.42 201.56-72.4l15.02-8.71c-58.77 9.23-119.42 9.01-178.24-.53ZM207.59 629.2l71.43-89.3c-2.94-2.77-5.79-5.61-8.53-8.54-2.61-2.79-4.68-6.16-7.67-8.63l-69.31 79.87c-2.21 3.16-1.41 4.82.28 7.88 6.58 11.93 22.1 28.55 33.97 39.45l-20.18-20.72ZM308.62 563.19l.39.24c-3.93-2.6-7.78-5.29-11.52-8.08l.52.44-70.24 94.15c1.78 1.64 3.49 3.15 5.07 4.49 2.7 2.3 5.45 4.49 8.21 6.62l67.57-97.85ZM258.2 672.94l-16.73-11.57c5.46 4.18 11.04 8.04 16.73 11.57ZM430.99 702.75l-9.94 1.25c3.31-.37 6.63-.79 9.94-1.25Z"/><path d="M462.09 593.97c-64.52-15.57-138.1-44.03-187.52-89.24-.68-.62-5.16-5.65-5.75-5.04-.55 4.77-2.3 11.4.26 15.81 4.67 8.02 20.71 22.27 28.29 28.31 83.89 66.85 230.68 84.6 334.2 70.96 7.89-1.04 16.63-2.26 24.37-3.93.56-.12 1.91-.06 1.83-.8-65.34 5.44-132.11-.73-195.68-16.07Z"/><path d="M674.82 540.07c-49.76 2.88-95.85 1.44-145.07-6.78-63.29-10.58-130.84-29.68-187.99-58.83-24.31-12.4-61.34-34.79-72.35-60.76-.35-.82-.65-1.63-.94-2.43l1.28 3.77c.19.65-.04.88-.68.68-.29-.09-.59-.2-.89-.31l2.53 13.21s.28 44.89 0 59.48c.97.65 1.85 1.6 2.71 2.6.85-.65 3.93-.47 4.82-.55l.39-.57 1.2-49.52c1.16 1.16 2.61 2.3 3.75 3.44.59.59.97 1.45 1.88 1.84l-.11 18.83-.26 1.66-.44 23.25c.15.38.47.35.8.39 2.27.25 4.59-.31 6.85-.25.32-3.8.14-7.59.23-11.4.14-6.22.4-12.46.74-18.68.11-2.08-.14-3.88.24-6 .06-.34-.23-.71.35-.6l4.92 4.19.48 31.77c4.07-.6 3.47 1.22 3.37 4.44-.02.69-.3 4-.51 4.29-.76 1.07-4.36.3-5.62.85-5-.02-9.98.37-14.97.68 16.84 15.03 36.31 28.19 57.31 39.63v-.62c.63-.73 1.52-.6 2.39-.61 1.22-17.94 1.78-35.98 2.77-53.94.24-.02 4.11 1.6 4.42 1.81.27.19.47.35.49.71.16 12.23.06 24.46.24 36.69 0 .57.25 1.09.26 1.66.07 4.2-.25 8.44.23 12.6l8.28-.48.57-.39.51-45.53c.05-.31-.13-.43.36-.36 1.37.2 3.9 1.93 5.41 2.32l1.43 42.88c.22 1.2 2.2 0 2.75 1.32.2.49.24 4.8.08 5.34-.13.43-.68.71-1.08.83-6.11.41-12.22 1.01-18.32 1.41 50.13 25.34 107.58 41.43 158.43 49.99 65.87 11.08 135.13 12.98 200.76-.79h.04c4.57-7.85 8.81-15.88 12.7-24.09a314.34 314.34 0 0 0 14.19-35.44c-2.79.67-5.6 1.07-7.54 1.43-17.16 3.16-35.93 3.9-53.38 4.91Zm-255.86 30.04c-.37-.6-.37-5.02.06-5.53l3.3-.54 2.16-51.31 5.04 1.44v48.56c.5.57 1.55.39 2.28.36 1.95-.08 4.7-.48 6.7-.74.24-.03.81-.12.87-.37l.59-44.44 5.12 2.07 2.19 41.57c.3.3 3-.5 3.48.23.3.52-.1 5.12-.49 5.52-.22.23-.53.3-.82.38l-28.69 3.23-1.79-.42Zm120.21 16.33-27.93 3.95c-.31-.08-.35-.3-.4-.57-.07-.4.34-4.45.52-4.75.45-.74 2.26-.58 2.37-1.04l3.11-47.08 5.27 1.21v44.83l6.72-.97.25-42.19 5.28.84 2.39 39.57c.2 1.3 2.15-.29 2.6 1 .32.91-.6 3.97-.19 5.21Zm112.02 3.98 2.01.03.36.36-.22 4.87c-7.98.87-15.91 2.47-23.89 3.34-.7.08-3.97.61-4.14-.11l.57-4.66 2.41-.95 3.71-45.81 4.65.27.15 44.57 6.73-1.12.95-42.4.39-.57 4.39-.26 1.93 42.43ZM282.8 370.38l-.07.04c-5.34-4.28-10.09-10.2-14.02-15.77-13.52-19.13-29.1-52.34-23.05-76.05.84-3.3 2.53-6.18 3.97-9.22-27.85-.07-25.47 30.81-20.1 50.09 6.77 24.33 23.69 45.24 42.42 61.54l-.04.07c2.84-4.03 6.57-7.6 10.9-10.71Z"/><path d="M398.23 349.43c1.78.08 3.53.31 5.26.64-12.14-9.4-24.38-18.68-36.88-27.62-25.75-18.43-58.43-37.85-88.59-47.64-3.07-1-13.47-4.4-15.94-3.76-3.4.88-6.38 5.82-7.33 9-5.47 18.32 7.05 46.66 16.73 62.23 5.23 8.41 11.73 16.76 19.36 23.12l-.05.03c2.49-1.33 5.09-2.54 7.75-3.64 28.57-11.79 68.97-13.66 99.68-12.37ZM380 364.79c-17.18.47-45.59 1.81-60.5 10.5-21.76 12.68 9.54 32.04 20.63 38.45 28.23 16.3 61.53 27.73 92.76 37 53.38 15.85 108.23 26.75 163.52 33.9 5.62.73 12.22.93 17.66 2.01.98.19 3.17 1.18 4.85 1.78-32.8-13.68-64.33-30.35-92.99-48.04-36.11-22.29-69.21-48.58-102.45-74.71a7.82 7.82 0 0 0-1.02-.18c-13.83-1.2-28.56-1.09-42.45-.71Zm21.34 18.22c.62-1.3 2.64.11 2.97-.87l1.47-13.03h3.6l-1.18 13.27c.09.31.3.35.58.4.66.12 4.04.44 4.33.02l1.54-14.16 3.84-.24c.18 4.8-.88 9.5-1.22 14.27l.24.73c.61.43 2.49-.43 2.85.75.18.61-.05 4.45-1.26 4.16-5.43-.4-10.9-.52-16.32-.98-.32-.03-1.45-.19-1.59-.38-.3-.42-.07-3.49.14-3.93Zm-40.79 5.51c.41-.48 1.67-.15 2.28-.24l1.89-18.13c.41-.54 3.02-.34 3.86-.58l-1.41 18.81c.1.28.31.33.57.38 1.11.19 2.77.05 3.96.24l2.19-19.75c.2-.65 3.27-.37 4.04-.64l-1.69 20.47c.73.65 2.6.02 3.01.87.56 1.15-.48 2.85-.47 4.09l-18.62-1.32c-.54-.38 0-3.76.37-4.21Zm-36.77 8.94 2.09-21.02 4.33-.87-1.89 23.84c.12.51 3.46.65 4.14.58l2.56-25.37 4.55-.49-2.17 25.78c.06.97 1.92.39 2.54 1.07.02 1.38.78 4.05-.98 4.3-.98.14-3.97-.07-5.01-.23-.95-.14-2.83-1.66-3.71-2.28-.87-.62-6.3-4.8-6.45-5.3Z"/><path d="M745.54 392.45c-52.49-46.48-122.3-71.8-191.61-79.39-2.7-.24-5.33-.48-7.94-.72-18.18-1.36-35.94-.85-54.32-3.68-21.86-3.36-43.66-9.53-64.61-17.15-7.48-2.4-13.33-4.69-17.87-6.75-.81.05.07.59.46.88 28.12 21.15 62.13 41.28 93.2 57.89 12.76 6.82 26.49 12.64 39.03 19.49 1.94 1.06 5.13 2.92 6.16 4.87 2.22 4.21-1.29 7.38-5.63 6.12-4.28-1.25-11.38-5.2-15.73-7.29-42.94-20.63-87.2-47.25-125.64-75.34-31.58-23.08-59.12-50.72-98.17-61.56-59.88-16.63-105.65 15.7-101.67 79.16 2.42 38.54 31.28 77.28 64.78 94.96s1.93 5.69 1.93 5.69c-2.5-7.89-2.23-14.91.04-21.07l-.02.03c-18.53-14.31-34.93-33.25-43.6-55.26-12.99-32.94-11.45-79.67 36.01-72.49 37.82 5.73 82.63 33.78 113.45 55.87 50.65 36.31 97.58 78.38 150.21 111.69 65.61 41.54 140.14 74.56 218 83.95 1.92-7.52 3.57-15.11 4.92-22.76 4.67-26.38 5.97-53.44 3.85-80.45-.1-1.22-.19-2.44-.3-3.67-.28-3.07-.6-6.13-.97-9.19-1.35-1.37-2.68-2.71-3.95-3.84Z"/><path d="M367.94 542.65c.41-.13.95-.4 1.08-.83.16-.55.12-4.86-.08-5.34-.55-1.33-2.53-.12-2.75-1.32l-1.43-42.88c-1.51-.38-4.04-2.12-5.41-2.32-.49-.07-.31.04-.36.36l-.51 45.53-.57.39-8.28.48c-.48-4.16-.16-8.4-.23-12.6 0-.57-.25-1.09-.26-1.66-.18-12.23-.08-24.46-.24-36.69-.02-.36-.21-.52-.49-.71-.31-.22-4.18-1.83-4.42-1.81-1 17.97-1.55 36-2.77 53.94-.87 0-1.76-.12-2.39.61v.62c3.55 1.93 7.14 3.81 10.77 5.65 6.11-.4 12.21-1 18.32-1.41ZM449.45 567.3c.29-.08.6-.15.82-.38.38-.4.79-5 .49-5.52-.48-.74-3.18.07-3.48-.23l-2.19-41.57-5.12-2.07-.59 44.44c-.06.26-.63.34-.87.37-2 .26-4.75.66-6.7.74-.73.03-1.78.21-2.28-.36v-48.56l-5.04-1.44-2.16 51.31-3.3.54c-.43.51-.43 4.93-.06 5.53l1.79.42 28.69-3.23ZM276.25 493.93c1.73 1.64 3.49 3.25 5.28 4.85 4.98-.31 9.97-.7 14.97-.68 1.26-.55 4.86.22 5.62-.85.21-.29.48-3.6.51-4.29.1-3.22.7-5.04-3.37-4.44l-.48-31.77-4.92-4.19c-.58-.1-.29.27-.35.6-.38 2.12-.13 3.92-.24 6-.34 6.22-.59 12.47-.74 18.68-.09 3.81.09 7.6-.23 11.4-2.26-.06-4.58.5-6.85.25-.33-.04-.65 0-.8-.39l.44-23.25.26-1.66.11-18.83c-.91-.39-1.29-1.24-1.88-1.84-1.14-1.15-2.59-2.28-3.75-3.44l-1.2 49.52-.39.57c-.89.09-3.98-.09-4.82.55.96 1.12 1.88 2.31 2.83 3.21ZM539.36 581.23c-.45-1.29-2.4.3-2.6-1l-2.39-39.57-5.28-.84-.25 42.19-6.7.97v-44.83l-5.28-1.21-3.11 47.08c-.11.46-1.92.29-2.37 1.04-.18.3-.6 4.35-.52 4.75.05.27.09.49.4.57l27.93-3.95c-.41-1.24.51-4.3.19-5.21ZM644.86 548.25l-.39.57-.95 42.4-6.73 1.12-.15-44.57-4.65-.27-3.71 45.81-2.41.95-.57 4.66c.17.72 3.44.18 4.14.11 7.97-.87 15.91-2.47 23.89-3.34l.22-4.87-.36-.36-2.01-.03-1.93-42.43-4.39.26ZM338.95 405.28c1.76-.25 1.01-2.93.98-4.3-.61-.68-2.47-.1-2.54-1.07l2.17-25.78-4.55.49-2.56 25.37c-.67.07-4.02-.08-4.14-.58l1.89-23.84-4.33.87-2.09 21.02c.15.51 5.57 4.68 6.45 5.3.88.62 2.76 2.14 3.71 2.28 1.04.16 4.03.37 5.01.23ZM378.8 394.05c-.02-1.24 1.03-2.94.47-4.09-.41-.85-2.28-.22-3.01-.87l1.69-20.47c-.78.27-3.84-.01-4.04.64l-2.19 19.75c-1.19-.19-2.85-.05-3.96-.24-.26-.04-.47-.1-.57-.38l1.41-18.81c-.84.24-3.45.04-3.86.58l-1.89 18.13c-.61.09-1.87-.25-2.28.24-.38.45-.91 3.84-.37 4.21l18.62 1.32ZM402.78 387.32c5.42.45 10.89.58 16.32.98 1.21.29 1.44-3.55 1.26-4.16-.35-1.18-2.23-.32-2.85-.75l-.24-.73c.34-4.77 1.4-9.48 1.22-14.27l-3.84.24-1.54 14.16c-.29.42-3.68.1-4.33-.02-.28-.05-.49-.09-.58-.4l1.18-13.27h-3.6l-1.47 13.03c-.33.99-2.35-.42-2.97.87-.21.44-.44 3.52-.14 3.93.13.19 1.27.35 1.59.38Z" style="fill:#b1b1b1"/><path d="m714.56 599.92 1.62-2.89c-.65 1.12-1.31 2.24-1.98 3.35.12-.16.24-.32.36-.46ZM508.05 594.05c-50.85-8.56-108.3-24.65-158.43-49.99-3.63-1.84-7.22-3.71-10.77-5.65-21-11.44-40.47-24.6-57.31-39.63-1.79-1.6-3.56-3.21-5.28-4.85-.95-.91-1.88-2.09-2.83-3.21-.86-1-1.74-1.95-2.71-2.6-1.6-1.08-3.41-1.34-5.67.33-.18.14-.37.28-.56.44-5.8 4.94-5.72 18.71-5.99 25.67-15.73 17.87-31.6 35.7-47.22 53.71-10.09 11.63-20.08 23.34-29.86 35.19-.93 2.25.12 4.71 1.16 6.74 5.5 10.76 17.72 25.19 29.27 36.99 5.41 5.52 10.67 10.47 15.02 14.19 111.91 95.61 273.47 47.68 393.78-14.19 11.1-5.71 21.85-11.54 32.18-17.38 6.59-3.73 16.79-11.26 23.07-13.87 4-1.66 11.85-2.76 16.52-4.1 1.29-.37 3.44-.93 5.8-1.56 3.73-5.55 7.26-11.23 10.63-17h-.04c-65.63 13.77-134.89 11.88-200.76.79Zm125.1 36.22c-57.96 31.98-129.9 62.33-201.56 72.4s-.6.08-.6.08c-3.31.46-6.63.87-9.94 1.25l-.88.11c-56.69 6.22-112.73-.89-161.05-30.59l-.03.04-.89-.62a209.97 209.97 0 0 1-16.73-11.57l-.44-.31.02-.02a210.36 210.36 0 0 1-8.21-6.62c-1.58-1.34-3.28-2.85-5.07-4.49-11.87-10.9-27.39-27.52-33.97-39.45-1.69-3.06-2.49-4.72-.28-7.88l69.31-79.87c2.99 2.48 5.06 5.84 7.67 8.63 2.74 2.93 5.59 5.77 8.53 8.54l.02-.03 18.45 15.48c3.74 2.79 7.59 5.48 11.52 8.08l16.12 9.87c36.26 20.55 77.99 34.08 116.24 42.35 6.16 1.33 12.35 2.56 18.56 3.68l.13-.28 9.86 1.98c58.83 9.53 119.48 9.75 178.24.53l-15.02 8.71Zm22.79-19.43c-7.75 1.67-16.49 2.89-24.37 3.93-103.52 13.65-250.31-4.11-334.2-70.96-7.58-6.04-23.63-20.29-28.29-28.31-2.56-4.4-.81-11.03-.26-15.81.59-.61 5.06 4.42 5.75 5.04 49.42 45.21 123.01 73.67 187.52 89.24 63.57 15.34 130.35 21.51 195.68 16.07.08.74-1.27.68-1.83.8ZM757.28 390.31c-.14-.14-.29-.27-.43-.4.61 4.47 1.14 8.95 1.56 13.45l-1.13-13.05ZM563.94 304.49c-27.12-3.51-54.48-2.2-81.31-7.42-40.66-7.9-85.22-25.01-120.06-47.34-1.09-.7-2.17-1.39-3.23-2.08-17.56-11.35-31.35-20.82-52.63-26.96-43.45-12.52-80.36-.77-100.13 26.96-12.88 18.06-18.48 42.89-13.87 72.22.3 1.9.67 3.81 1.1 5.73 7.16 32.27 31.71 65.23 59.17 82.13.02.01.04.03.06.04 4.35 2.67 10.18 5.96 15.14 7.64.3.1.6.22.89.31.64.2.87-.03.68-.68l-1.28-3.77c-.2-.55-.39-1.1-.56-1.64l-1.93-5.69c-33.5-17.69-62.36-56.43-64.78-94.96-3.98-63.46 41.79-95.79 101.67-79.16 39.05 10.85 66.58 38.48 98.17 61.56 38.44 28.1 82.69 54.72 125.64 75.34 4.35 2.09 11.45 6.04 15.73 7.29 4.34 1.27 7.85-1.9 5.63-6.12-1.03-1.96-4.22-3.81-6.16-4.87-12.54-6.85-26.27-12.67-39.03-19.49-31.07-16.61-65.08-36.74-93.2-57.89-.39-.3-1.27-.83-.46-.88h.38c5.75 2.35 11.59 4.6 17.49 6.75 20.95 7.62 42.75 13.79 64.61 17.15 18.38 2.83 36.14 2.32 54.32 3.68 2.64.2 5.28.43 7.94.72 69.32 7.59 139.12 32.91 191.61 79.39 1.27 1.13 2.6 2.46 3.95 3.84-.6-5-1.31-9.98-2.15-14.94-28.08-24.1-60.88-42.39-95.75-55.39-28.31-10.55-57.99-17.63-87.65-21.47Z" style="fill:#fff"/><path d="M618.91 488.43c-1.68-.6-3.88-1.58-4.85-1.78-5.44-1.08-12.04-1.28-17.66-2.01-55.29-7.15-110.14-18.05-163.52-33.9-31.23-9.28-64.53-20.71-92.76-37-11.09-6.4-42.39-25.76-20.63-38.45 14.91-8.69 43.33-10.03 60.5-10.5 13.89-.38 28.62-.49 42.45.71.33.03.67.1 1.02.18-6.65-5.22-13.3-10.44-19.98-15.62a36.69 36.69 0 0 0-5.26-.64c-30.71-1.3-71.1.57-99.68 12.37-2.66 1.1-5.25 2.31-7.75 3.64-2.82 1.5-5.51 3.15-8 4.95-4.32 3.12-8.06 6.69-10.9 10.71-1.64 2.33-2.98 4.81-3.96 7.45-2.27 6.17-2.55 13.18-.04 21.07.17.54.36 1.09.56 1.64.29.8.6 1.61.94 2.43 11.01 25.98 48.04 48.37 72.35 60.76 57.15 29.15 124.71 48.25 187.99 58.83 49.22 8.23 95.31 9.66 145.07 6.78 17.45-1.01 36.22-1.76 53.38-4.91 1.93-.36 4.75-.76 7.54-1.43 1.34-4.05 2.61-8.12 3.79-12.22-3.39-.39-7.13-.99-9.02-1.25-37.29-5.14-75.22-16.64-111.58-31.81Z" style="fill:#b1b1b1"/><path d="m750.13 514.09-.12-.19c-.07.26-.13.52-.2.78.11-.23.22-.44.32-.59ZM524 428.4c-52.62-33.32-99.55-75.39-150.21-111.69-30.82-22.09-75.64-50.14-113.45-55.87-47.47-7.19-49 39.54-36.01 72.49 8.67 22 25.07 40.95 43.6 55.26l.02-.03c.97-2.64 2.32-5.12 3.96-7.45l.04-.07c-18.73-16.29-35.64-37.21-42.42-61.54-5.37-19.28-7.75-50.17 20.1-50.09-1.44 3.03-3.13 5.92-3.97 9.22-6.04 23.71 9.53 56.92 23.05 76.05 3.93 5.56 8.68 11.48 14.02 15.77l.07-.04c2.5-1.8 5.18-3.45 8-4.95l.05-.03c-7.63-6.36-14.13-14.71-19.36-23.12-9.68-15.58-22.2-43.91-16.73-62.23.95-3.18 3.93-8.11 7.33-9 2.46-.64 12.86 2.77 15.94 3.76 30.16 9.79 62.83 29.21 88.59 47.64 12.5 8.94 24.74 18.21 36.88 27.62 6.68 5.18 13.34 10.39 19.98 15.62 33.24 26.13 66.34 52.42 102.45 74.71 28.66 17.69 60.2 34.36 92.99 48.04 36.37 15.17 74.29 26.68 111.58 31.81 1.89.26 5.63.87 9.02 1.25.87-3.04 1.7-6.09 2.48-9.15-77.86-9.39-152.38-42.41-218-83.95ZM325.5 573.51l-.36-.22-16.12-9.86-.4-.24-67.57 97.85-.02.02.45.31 16.72 11.57.89.62.03-.04 66.38-100.01zM298.01 555.78l-.52-.44-18.45-15.47-.03.03-71.42 89.3 20.17 20.72.01.01 70.24-94.15zM470.16 621.07l-.23-.04-9.86-1.99-.13.28-39.77 84.78v.01l.88-.11 9.94-1.25.6-.08 38.57-81.6z" style="fill:#fff"/><path d="M494.53 255.51c3.07-2.32 6.46-4.96 9.97-7.86 14.67-12.08 31.57-28.5 37.19-43.69 4.08-11.02 4.69-24.73.76-36.17-3.52-10.25-10.68-18.68-22.26-21.74-11.7-3.09-24.03-1.97-34.2 4.86-5.72 3.84-11.78 9.04-15.41 14.9-.37.09-.38-.06-.58-.25-1.52-1.5-3.03-4.15-4.68-5.86-11.91-12.37-26.17-17.95-43.34-14.09-12.34 2.77-20 11.36-23.76 21.92-3.93 11.06-3.58 24.28.22 35.3 3.52 10.18 10.82 18.95 18.1 26.71 6.03 6.44 12.61 12.45 19.5 18.11 10.83 8.89 22.48 16.91 34.17 24.27 8.39-4.98 16.51-10.55 24.3-16.42Z" style="fill:#e70000"/><path d="M168.91 248.42c-16.94 24.17-30.47 50.46-40.21 78.14a322.083 322.083 0 0 0-15.51 64.83c-.75 5.7-1.37 11.63-1.83 17.61-2.1 27.11-.82 54.35 3.82 80.95 4.81 27.57 13.22 54.51 25.01 80.07a326.594 326.594 0 0 0 51.54 79.15c30.61 34.75 67.37 62 109.27 81 29.37 13.32 60.59 22.15 92.8 26.25 13.73 1.75 27.49 2.62 41.21 2.62 46.03 0 91.6-9.77 133.72-28.87 41.54-18.84 79.49-46.85 109.76-81a324.012 324.012 0 0 0 35.72-48.79c.66-1.11 1.33-2.23 1.98-3.35 5.1-8.77 9.79-17.78 14.04-27.02 8.2-17.79 14.75-36.32 19.58-55.32.07-.26.13-.52.2-.78 1.99-7.91 3.69-15.91 5.08-23.97 1.5-8.69 2.65-17.53 3.44-26.26 1.64-18.22 1.76-36.62.37-54.69-.14-1.88-.31-3.76-.49-5.63-.43-4.5-.95-8.98-1.56-13.45a322.055 322.055 0 0 0-15.17-62.88c-9.78-27.86-23.38-54.31-40.41-78.61-21.83-31.14-48.66-58.01-79.77-79.87-58.09-40.83-126.53-61.17-197.92-58.79-62.66 2.08-123.07 22.35-174.7 58.61-31.2 21.91-58.1 48.85-79.97 80.06Zm383.66 479.9c-36.8 14.72-75.71 22.27-115.64 22.43-4.39.01-8.85-.06-13.23-.22-36.58-1.37-72.16-8.84-105.75-22.21-20.9-8.32-40.96-18.97-59.7-31.63-20.71-13.99-39.82-30.42-56.69-48.87-.2-.22-.39-.44-.59-.66-21.21-23.33-38.78-49.57-52.22-78-.14-.3-.28-.61-.42-.91a315.268 315.268 0 0 1-24.93-78.66c-.07-.39-.13-.77-.2-1.16-4.51-26.03-5.74-52.7-3.64-79.29l.12-1.41c.36-4.36.8-8.69 1.32-12.89 2.84-23.03 8.27-45.78 16.12-67.62.2-.56.41-1.11.62-1.67a314.666 314.666 0 0 1 40.36-75.98c.47-.65.95-1.28 1.42-1.92 22.45-30.63 49.9-56.78 81.67-77.73 1.12-.74 2.26-1.47 3.39-2.19 48.06-30.83 103.38-48.08 160.28-49.92 2.59-.08 5.21-.14 7.8-.16h2.39c60.82 0 119.82 17.37 171.05 50.33 1.12.72 2.25 1.44 3.36 2.18 31.62 20.9 58.97 46.97 81.34 77.5.47.64.95 1.27 1.42 1.92 17 23.55 30.62 49.27 40.52 76.44.2.56.41 1.11.62 1.67 6.24 17.43 10.92 35.4 13.99 53.66.84 4.96 1.55 9.94 2.15 14.94.37 3.06.69 6.12.97 9.19.11 1.22.21 2.45.3 3.67 2.12 27 .83 54.07-3.85 80.45-1.36 7.65-3.01 15.24-4.92 22.76-.78 3.06-1.61 6.11-2.48 9.15-1.18 4.1-2.44 8.18-3.79 12.22a316.235 316.235 0 0 1-14.19 35.44c-3.89 8.22-8.13 16.25-12.7 24.09-3.37 5.78-6.91 11.45-10.63 17-8.7 12.96-18.36 25.3-28.93 36.91-.2.22-.39.44-.59.66-1.93 2.11-3.9 4.2-5.89 6.26-31.07 32.17-69.02 57.75-110.23 74.24ZM252.62 747.65c-1.58-2.22-3.57-4.06-5.97-5.52s-4.95-2.38-7.65-2.76c-2.7-.38-5.34-.26-7.92.38s-4.98 1.76-7.21 3.36c-2.23 1.6-4.08 3.61-5.54 6.03s-2.4 4.98-2.8 7.69c-.4 2.71-.29 5.36.33 7.95.62 2.58 1.72 4.99 3.3 7.21 1.58 2.22 3.57 4.07 5.97 5.53s4.95 2.38 7.65 2.76c2.7.38 5.34.26 7.92-.38s4.98-1.76 7.21-3.36c2.23-1.6 4.07-3.61 5.54-6.03 1.47-2.42 2.4-4.98 2.8-7.69s.29-5.36-.33-7.95c-.62-2.58-1.72-4.99-3.3-7.21ZM209.95 687.06c-10.85-9.69-22.81-9.4-30.48-.81-6.79 7.61-5.58 17.09-3 23.99l2.42 6.63c2.58 7.04 1.73 12.37-1.1 15.54-3.57 3.99-9.53 5.71-15.52.36-6.36-5.68-4.47-13.06-2.09-17.98-.2-1.13-1.62-2.26-2.6-1.91-3.16 3.54-6.85 9.18-7.51 11.57 2.91 3.82 4.95 7.26 8.84 10.73 10.92 9.75 22.11 8.37 28.77.91 6.05-6.78 5.22-15.78 2.43-23.96l-1.6-4.68c-2.79-8.17-1.71-13.44 2.12-17.74 4.1-4.59 10.41-5.19 16.1-.11 7.33 6.55 4.17 18.21 2.09 23.26.13 1.06 1.47 2.12 2.59 1.77 4.25-4.6 7.92-10.67 7.98-13.45-.69-2.24-2.56-7.97-9.44-14.12ZM177.99 670.27c3.54-.91 4.86-.55 7.07 1.4l2.27 2.03c1.15-.02 2.27-1.04 2.22-1.91-2.35-2.61-4.37-4.98-6.44-7.56-2.49-3.27-4.87-6.25-6.72-8.88-.82-.37-2.3.68-2.41 1.67l1.42 2.59c1.85 3.28 2.5 4.42-3.4 6.58l-11.97 4.44c-2.69 1-2.63 1.08-4.26-.96l-8.65-10.8c-1.75-2.19-2-2.5-.44-4.91l7.78-12.26c2.37-3.83 3.16-3.81 5.81-1.31l1.62 1.53c.85.09 2.21-1.12 2.1-2.07-2.27-2.68-5.19-6-7.88-9.36-3.26-4.07-5.5-7.03-7.91-10.37-.83-.23-2.17.84-2.22 1.91l.7 1.36c2.41 4.62 2.25 5.39-1.59 11.42l-24.01 37.72c-2.54 4.09-5.44 8.08-7.98 12.17-.15.63-.07 1.21.43 1.84.12.16 5.42.15 8.17 2.45 1.15-1.31 3.67-2.04 6.95-3.12l36.65-11.74c5.57-1.76 9.89-3.16 12.69-3.87Zm-28.04 4.08-12.04 3.86c-4.77 1.64-7.68 2.68-8.49 2.81l-.12-.16c.24-.83 1.67-2.76 4.73-7.51l6.83-10.86c1.39-2.14 1.8-1.95 3.55.24l6.83 8.53c1.5 1.88 1.63 2.04-1.28 3.08ZM136.59 611.82c1.76-.09 2.83 1.39 4.04 2.92l1.43 1.75c.99.4 2.44-.54 2.53-1.48-1.74-3.05-3.04-5.43-4.91-9.21-1.7-3.41-3.34-6.96-4.82-10.37-.72-.76-2.48 0-2.71 1.12l.71 2.11c.84 2.38.97 4.22.01 5.7-1.96 2.88-10.23 7.1-17.02 10.47l-17.64 8.76c-4.79 2.38-5.79 2.88-5.92 2.61.6-2.2 2.47-6.83 6.31-15.9l13.71-33.02c4.2-10.15 5.71-13.7 6.9-16.08-.45-1.12-1.61-2.56-2.96-2.78-1.95 1.3-12.62 6.61-15.33 7.95L79.3 577.11c-7.15 3.55-15.01 7.46-18.44 7.6-1.76.09-2.79-1.3-4-2.83l-1.48-1.84c-.99-.4-2.44.54-2.53 1.48 1.79 3.14 3.04 5.43 4.96 9.3 1.74 3.5 3.3 6.87 4.86 10.46.72.76 2.48 0 2.71-1.12l-.75-2.2c-.84-2.38-.92-4.13.03-5.61 1.91-2.96 10.19-7.19 16.97-10.56l17.64-8.76c1.45-.72 1.9-.94 2.3-.81-.1 1.17-5.54 14.28-7.82 20.12l-5.31 13.83c-1.88 4.85-8.41 20.3-11.54 23.76 1.25 2.07 2.41 4.18 3.35 6.06 1.12 2.25 3.66 7.14 4.99 10.73.72.76 2.57-.04 2.8-.94l-.4-1.48c-.35-1.39-.88-4.27-.55-5.66 1.1-4.36 2.6-4.99 9.65-8.49l21.44-10.65c7.15-3.55 15.01-7.46 18.4-7.68ZM99.92 519.88l.66 2.13c.81.58 2.59.18 2.86-.67-.92-4.32-1.75-8.76-2.37-12.52-.6-3.66-.77-8.41-1.76-14.45-1.48-9.01-4.08-17.32-8.82-23.76-8.3-11.24-20.55-14.81-31.61-12.99-14.85 2.44-24.03 12.59-26.46 25.19-1.4 7.65-1.09 14.51.45 23.91 1.59 9.7 3.2 17.57 4.97 24.59.63.71 2.42.42 2.81-.36l-.14-2.11c-.37-4.72 1.01-5.05 10.58-6.62l36.47-6c10.56-1.74 11.01-.9 12.37 3.66Zm-53.22-8.73c-4.68.77-6.79 1.02-7.5.42s-2.03-3.63-2.71-7.79c-2.72-16.53 4.98-29.48 24.71-32.73 16.84-2.77 30.7 3.08 33.6 20.7 1.73 10.49-3.34 12.04-13.01 13.63l-35.08 5.77ZM78.42 438.55c10.71-.03 11.01.87 11.63 5.58l.31 2.21c.71.7 2.53.59 2.93-.21-.21-4.41-.33-9.13-.34-13.54-.01-4.41.08-8.93.26-13.34-.41-.8-2.22-.9-2.93-.19l-.3 2.21c-.59 4.72-.89 5.62-11.6 5.65l-37.57.11c-10.71.03-11.01-.87-11.63-5.58l-.31-2.21c-.71-.7-2.53-.59-2.93.21.21 4.41.33 8.92.34 13.34.01 4.61-.08 9.13-.26 13.54.41.8 2.22.9 2.93.19l.3-2.21c.59-4.71.89-5.62 11.6-5.65l37.57-.11ZM29.47 399.49l.43-1.56c1.26-4.58 1.79-5.42 12.39-3.91l37.2 5.28c10.6 1.5 10.77 2.44 10.61 7.18l-.12 3.73c.6.79 2.42.95 2.93.21.43-4.5 1.19-10.57 1.82-14.94l1.61-11.32c1.65-11.62 2.96-20.14 3.78-24.48-2.5-1.77-9.79-5.04-13.91-6.23-1.08.45-1.62 2.1-1.05 3.09 7.61 4.62 10.1 7.21 8.2 19.8-1.29 8.33-2.22 9.92-3.79 10.91-1.91 1.25-5.54.93-10.64.21l-12.7-1.8c-2.5-.36-2.69-.48-2.36-2.77l.68-4.77c1.23-8.64 1.67-10.3 5.97-10.4l4.1-.13c.71-.71.98-2.6.35-3.19-3.22-.36-6.74-.66-10.54-1.19-3.7-.53-7.27-1.24-9.96-1.72-.87.38-1.14 2.27-.55 3.16l3.3 1.18c4.17 1.5 4.06 3.01 2.83 11.65l-.68 4.77c-.32 2.28-.44 2.37-3.04 2l-16.9-2.4c-5.7-.81-5.9-.84-5.29-5.11l.95-6.65c.38-2.68 1.1-5.62 2.03-7.81 1.35-3.05 3.96-4.2 9.99-4.96.71-.71.8-2.72.05-3.23-4.38-.01-12.37-.54-14.12-.39.02 1.32-.7 7.09-1.6 13.45l-2.7 18.96c-.62 4.37-1.38 9.02-2.12 12.77.29.85 2.07 1.21 2.87.61ZM70.47 339.64c8 2.83 16.96 2.92 24.75-.6 9.94-4.46 16.77-14.06 20.78-25.41 1.91-5.39 3.28-12.88 3.92-19.25.25-1.93.48-3.77.84-4.81-.15-.48-.91-.75-1.39-.6-1.49 1.49-4.14 1.09-7.47-.09l-5.52-1.96c-5.81-2.06-6.37-2.89-5.7-6.59l.32-1.8c-.37-1.09-2.02-1.57-2.83-.79-1.25 4.13-2.29 7.38-3.8 11.64-2.31 6.52-4.01 11.03-5.51 14.65.21.92 1.83 1.5 2.73 1.07l1.78-3.2c3.29-5.96 3.89-5.86 10.65-3.46l3.43 1.21c3.43 1.21 5.04 2.1 5.7 2.98 1.03 1.64.82 4.65-.79 9.19-1.98 5.58-6.65 12.43-14.55 15.38-7.9 2.95-16.69 1.75-24.31-.95-16.19-5.73-25.43-18.05-19.54-34.69 3.32-9.36 10.26-14.45 20.23-13.26 1.02-.17 1.67-2.28.88-3.09-7.59-2.16-12.68-3.22-15.57-4.13-.4 1.13-1.75 3.74-3 5.75-1.84 3.07-4.31 7.62-5.88 12.07-4.65 13.14-4.21 24.9.56 34.14 4.08 8.15 11.29 13.79 19.29 16.62ZM98.46 264.93c15.24 9.54 35.77 7.02 47.8-12.19 10.76-17.17 6.16-37.8-10.7-48.36-15.58-9.76-36.12-8.55-48.42 11.09-11.18 17.85-6.14 38.52 11.32 49.46Zm-8.59-46.21c8.47-13.51 27.07-9.91 39.99-1.81 17.21 10.78 19.58 23.15 13.51 32.84-9.11 14.53-28.34 9.47-40.15 2.07-18.23-11.42-18.67-24.6-13.35-33.1ZM141.78 152.36l2.14-1.52c3.83-2.79 4.72-1.96 11.23 5.23l24.8 27.41c7.18 7.94 6.72 8.77 3.63 12.38l-1.43 1.7c-.05 1 1.25 2.28 2.11 2.04 3.14-3.11 6.57-6.35 9.84-9.31 2.83-2.56 6.15-5.16 9.42-8.12 8.48-7.67 12.24-13.39 13.09-19.47.91-5.87-1.36-10.62-4.48-14.07-7.66-8.46-17.3-6.41-23.76-2.2-.58.25-.87.24-1 .09s-.19-.51.04-.85c3.65-6.43 3.79-12.7-.2-17.11-4.27-4.72-8.76-6.1-14.01-5.03-5.11 1.08-10.63 4.99-16.88 10.64-8.18 7.4-13.27 12.69-16.35 16.02-.26.91.83 2.11 1.82 2.16Zm61.84 6.02c6.03 6.67 4.54 14.14-.59 18.78-6.47 5.85-9.72 3.76-15.89-3.06l-9.76-10.78c-1.36-1.5-1.61-2.08 1.66-5.04 8.26-7.47 17.59-7.61 24.57.1Zm-43.57-22.14c4.61-4.17 11.82-5.92 17.78.67 6.1 6.74 5.41 12.4-1.58 18.73-2.98 2.69-3.27 2.82-5.03.87l-12.26-13.56c-2.71-3-2.62-3.35 1.09-6.71ZM259.68 142.3c17.43-10.33 22.81-30.77 12.67-47.89-9.37-15.81-28.18-24.16-48.12-12.35-18.12 10.74-23.12 31.42-12.62 49.15 9.16 15.47 28.57 22.64 48.07 11.09Zm-34.51-56.09c13.72-8.13 28.6 3.6 36.37 16.72 10.35 17.47 6.78 29.56-3.05 35.38-14.76 8.74-29.52-4.58-36.63-16.57-10.96-18.51-5.32-30.42 3.31-35.54ZM328.28 111.39c19.27-6.25 29.01-25.01 22.87-43.94-5.67-17.49-22.19-29.75-44.23-22.61-20.04 6.49-29.45 25.58-23.1 45.18 5.54 17.1 22.9 28.36 44.46 21.37Zm-21.36-62.3c15.17-4.92 27.11 9.79 31.81 24.3 6.26 19.31.13 30.32-10.75 33.85-16.31 5.29-27.8-10.95-32.1-24.21-6.63-20.46 1.49-30.85 11.04-33.94ZM356.8 46.22c2.71-8.57 5.26-9.99 14.42-11.1l5.58-.67c2.59-.31 2.71-.12 3.22 4.09l5.22 43.32c1.28 10.63.4 10.84-4.21 12l-4.12 1c-.64.59-.3 2.58.55 2.88 6.35-.97 11.02-1.63 15.4-2.16 4.38-.53 8.88-.97 14.68-1.46.75-.5.63-2.32-.15-2.93l-3.63.03c-4.74.06-5.67-.13-6.95-10.76l-5.22-43.32c-.51-4.21-.43-4.42 2.16-4.74l5.68-.68c10.66-1.28 12.78.39 15.01 8.06.98.59 2.65.19 3.05-.67-.68-3.17-.93-11.89-.43-16.12-.24-.28-.76-.42-1.36-.35-.4.05-.77.3-1.15.54-.92 2.45-2.37 2.93-7.25 3.52l-40.63 4.9c-6.77.82-8.18.88-8.98-1.56-.23-.28-.64-.33-1.04-.28-.5.06-.88.21-1.05.53-.27 3.59-1.02 9.99-2.06 15.61.52.95 2.65 1 3.27.32ZM427.84 92.45c4.42.08 9.13.27 13.53.55 3.8.24 7.99.81 12.39 1.08 11.41.72 18.13-.58 23.08-4.22 4.84-3.44 6.66-8.39 6.95-13.02.72-11.39-7.48-16.86-15.01-18.55-.59-.24-.78-.45-.76-.66.01-.2.23-.49.64-.57 7.15-1.88 11.74-6.14 12.12-12.09.4-6.35-1.75-10.53-6.18-13.54-4.34-2.9-10.99-4.13-19.4-4.66-11.01-.69-18.35-.65-22.88-.53-.83.45-.93 2.07-.28 2.82l2.58.47c4.67.8 4.7 2.02 4.09 11.69l-2.32 36.89c-.67 10.69-1.59 10.93-6.33 11.24l-2.22.16c-.75.66-.76 2.48.02 2.94Zm21.77-39.42 1.15-18.25c.25-4.03.57-4.22 5.57-3.9 6.21.39 12.49 4.33 11.93 13.2-.57 9.07-5.11 12.53-14.52 11.94-4-.25-4.3-.37-4.13-2.99Zm-1.49 23.69.91-14.52c.13-2.02.37-2.61 4.77-2.33 11.11.7 17.73 7.29 17.08 17.67-.56 8.97-6.95 13.12-13.86 12.69-8.71-.55-9.47-4.34-8.9-13.51ZM501.05 99.76l10.16 2.37c10.94 2.55 19.32 4.6 23.37 5.75 1.79-2.38 5.68-9.36 7.42-13.31-.3-.9-1.8-1.56-2.89-1.3-6.85 9.08-8.53 9.21-19.37 6.69-7.81-1.82-9.19-2.97-10.04-4.62-1.08-2.01-.45-5.6.7-10.52l8.05-34.53c2.38-10.23 3.31-10.22 8.08-9.94l2.24.11c.9-.31 1.26-2.3.47-2.9-4.34-.8-8.76-1.73-13.06-2.73a356.03 356.03 0 0 1-13.7-3.5c-.97.19-1.43 2.16-.86 2.81l2.64 1.03c4.43 1.76 5.24 2.26 2.86 12.49l-8.53 36.59c-2.38 10.23-3.29 10.12-8.06 9.84l-3.05-.19c-.99.29-1.16 2.32-.47 2.9 4.15.76 9.05 1.8 14.04 2.96ZM552.71 113.76c3.71 1.78 7.18 3.35 10.03 4.85.9-.04 1.74-1.65 1.39-2.59l-2.44-1.66c-3.13-2.08-4.24-2.8.04-7.41l8.64-9.4c1.94-2.12 1.85-2.16 4.23-1.08l12.62 5.69c2.56 1.15 2.93 1.32 2.63 4.18l-1.35 14.46c-.37 4.48-1.08 4.83-4.58 3.81l-2.14-.63c-.8.31-1.45 2-.93 2.79 3.24 1.35 7.35 2.98 11.28 4.75 4.75 2.14 8.1 3.76 11.76 5.63.85-.17 1.55-1.74 1.11-2.71l-1.25-.89c-4.25-3.02-4.46-3.78-3.78-10.9l4.22-44.51c.4-4.8 1.17-9.67 1.57-14.47-.16-.62-.49-1.11-1.22-1.44-.18-.08-4.9 2.33-8.39 1.53-.43 1.69-2.34 3.49-4.77 5.94l-27.3 27.13c-4.16 4.11-7.37 7.31-9.54 9.21-2.74 2.42-4.08 2.7-6.94 1.97l-2.95-.78c-1.01.54-1.54 1.96-1.11 2.71 3.28 1.26 6.16 2.44 9.18 3.8Zm24.94-24.1 8.97-8.92c3.5-3.63 5.62-5.88 6.28-6.36l.18.08c.17.85-.24 3.22-.79 8.84l-1.14 12.78c-.26 2.54-.71 2.56-3.27 1.4l-9.97-4.49c-2.2-.99-2.38-1.07-.26-3.33ZM634.09 159.68c5.39 3.66 12.08 6.13 14.3 6.79 1.08.37 2.31.71 3.42 1.22 2.24-.8 8.23-4.79 12.61-9.99.1-1.03-1-2.27-2.26-2.02-6.01 3.85-15.34 7.77-25.8.66-10.7-7.27-15.83-23.46-3.73-41.25 11.64-17.12 27.37-17.42 37.9-10.26 10.95 7.44 9.97 16.91 7.8 23.13.18.98 1.73 1.91 2.77 1.64 3.37-6.74 6.56-11.79 7.7-13.82l-1.98-2.08c-3.22-3.65-8.37-8.38-13.1-11.59-8.38-5.69-18.4-8.96-27.72-8.46-9.37.59-18.86 5.26-25.5 15.03-7.44 10.94-7.55 21.98-3.84 30.97 3.3 7.98 9.22 14.45 17.43 20.03ZM671.74 168.37c-7.58 7.56-8.43 7.14-12.26 4.3l-1.13-.85c-.85-.14-2.21 1.36-1.93 2.21 2.69 2.41 6.09 5.68 9.21 8.8 3.12 3.12 6.23 6.39 9.42 9.87.85.28 2.35-1.07 2.21-1.93l-1.56-1.99c-2.9-3.77-3.32-4.62 4.26-12.18l9.08-9.06c2.07-2.07 3.65-3.92 5.42-2.15.64.64.63 1.78.63 2.77-.1 5.34-3.25 25.34-3.99 32.03-.22 1.78-1.15 2.42-2.43 1.43l-2.2-1.63c-1-.28-2.42 1.14-1.93 2.21 3.26 2.98 6.52 6.1 9.99 9.58 3.75 3.76 6.51 6.67 8.85 9.3.78.35 2.36-1.07 2.22-1.93l-1.48-1.92c-1.84-2.42-2.83-4.69-2.53-7.96.91-11.1 2.69-26.34 4.53-39.36.29-1.85.86-2.14 2.57-2.14l17.44-.11c9.68.12 13.31.33 20.82 6 1.07.35 2.43-1.29 1.86-2.28-2.62-2.49-4.96-4.54-8.01-7.6-2.62-2.63-4.89-5.04-7.72-8.17-1.14 0-2.28.86-2.21 1.93l1.55 2.84c.64 1.07 0 1.56-2.93 1.93-1.99.29-6.41.58-8.26.59l-15.09.6c-4.91.22-8.19.23-9.53-1.12-1.13-1.14.08-2.49 2.01-4.42l7.94-7.92c7.58-7.56 8.29-6.99 12.19-4.23l1.42.99c.85.14 2.21-1.36 1.93-2.21-2.91-2.63-6.16-5.75-9.28-8.87-3.26-3.27-6.37-6.53-9.13-9.59-.85-.28-2.21.93-2.22 1.93l1.13 1.56c2.83 3.84 3.32 4.62-4.26 12.18l-26.6 26.53ZM732.48 232.5c-7.08 3.9-13.03 13.82-6.05 26.47 3.73 6.76 9.57 10.87 18.69 13.4-1.23 2.17-2.95 5.52-3.51 7.43-.76 2.59.56 7.71 2.83 11.84 2.42 4.39 7.58 9.79 14.64 11.51 1.03-.22 1.58-1.33 1.18-2.25-2.34-1.11-4.95-3.34-6.31-5.8-3.44-6.24-2.04-12.28 1.77-19.18.63-1.15 1.38-1.68 2.47-1.59 7.7.79 14.22 1.32 18.92 1.48 6.78.16 10.36.59 13.85 4.62l3.11 3.55c1.1.31 2.37-.73 2.38-1.54-1.29-1.92-6.19-9.98-8.66-14.46l-2.66-4.83c-.84-.68-2.26-.13-2.62 1.1l.96 2.79c.91 2.7-.17 2.84-4.35 3.2-7.07.57-14.77.81-20.13.1 4.69-8.65 6.92-14.23 7.61-23.43 3.42 2.01 8.44 6.11 15.08 2.46 6.1-3.36 8.7-11.21 4.39-19.02-4.02-7.29-12.86-10.78-20.82-6.39-6.19 3.41-7.07 10.19-7.49 12.14-7.08-4.69-16.07-8.66-25.27-3.59Zm34.39 8.42c.7-5.42 2.19-9 5.91-11.04 4.07-2.24 8.21-1.21 9.91 1.87 1.84 3.34-.22 7.34-4.82 9.87-3.72 2.05-7.31 2.43-10.09 1.78-.19-.13-.78-.37-.93-.64-.1-.18-.04-1.12.02-1.84Zm-11.99-1.87c.92.41 1.93 1 2.18 1.44.24.44-.09 7.38-2.41 14.04-1.43 4.11-3.43 8.42-5.63 12.38-1.1 1.98-1.63 2.27-3.51 1.59-3.98-1.36-7.55-4.08-9.68-7.95-4.21-7.64-2.38-16.67 5.05-20.76 4.42-2.44 10.24-2.55 14.01-.74ZM765.23 332.84l-1.21-2.8c-.71-.76-2.6.02-2.8.89 1.2 4.04 2.5 8.89 3.72 13.85l2.49 10.13c2.68 10.91 4.65 19.31 5.46 23.44 2.94.52 10.92.82 15.23.59.66-.68.58-2.31-.16-3.16-11.21-1.99-12.08-3.43-14.74-14.24-1.92-7.79-1.52-9.54-.43-11.05 1.31-1.87 4.79-2.93 9.69-4.14l34.42-8.47c10.2-2.51 10.61-1.68 12.52 2.7l.92 2.05c.68.66 2.62.08 2.79-.89-1.25-4.24-2.43-8.59-3.48-12.88-1.1-4.48-2.08-8.89-3.09-13.8-.61-.78-2.57-.3-2.89.5l.28 2.82c.44 4.75.36 5.69-9.84 8.21l-36.48 8.98c-10.2 2.51-10.51 1.66-12.43-2.73ZM842.45 399.58c-.28-4.4-.47-9.11-.5-12.93-.45-.78-2.27-.76-2.94-.02l-.1 1.61c-.31 4.74-.66 5.67-11.34 6.34l-37.5 2.34c-10.68.67-11.04-.21-11.84-4.89l-.63-3.68c-.75-.66-2.56-.44-2.91.38.48 4.49.97 10.59 1.24 15l.71 11.41c.73 11.71 1.17 20.33 1.24 24.74 2.81 1.23 10.61 2.95 14.88 3.29.97-.66 1.17-2.38.4-3.24-8.38-2.99-11.34-5.02-12.04-17.74-.42-8.41.17-10.16 1.51-11.45 1.62-1.61 5.24-2.04 10.38-2.36l12.8-.8c2.52-.16 2.73-.07 2.87 2.23l.3 4.8c.54 8.71.45 10.42-3.74 11.39l-3.99.95c-.55.84-.44 2.74.3 3.2 3.22-.3 6.73-.72 10.56-.96 3.73-.23 7.37-.26 10.1-.33.78-.55.66-2.45-.1-3.21l-3.47-.49c-4.39-.63-4.59-2.12-5.13-10.83l-.3-4.8c-.14-2.3-.05-2.41 2.57-2.57l17.03-1.06c5.75-.36 5.95-.37 6.22 3.93l.42 6.71c.17 2.7.05 5.72-.41 8.06-.71 3.26-3.03 4.91-8.78 6.88-.55.84-.23 2.83.6 3.18 4.3-.87 12.22-1.97 13.91-2.48-.28-1.29-.75-7.09-1.15-13.49l-1.19-19.12ZM830.59 483.01l-33.74-18.52c-5.12-2.83-9.1-5-11.54-6.55-3.1-1.95-3.75-3.15-3.85-6.1l-.09-3.05c-.8-.82-2.32-.93-2.92-.3-.28 3.5-.6 6.6-1.06 9.88-.66 4.06-1.18 7.83-1.82 10.99.29.85 2.08 1.2 2.87.6l.9-2.81c1.11-3.59 1.48-4.86 7.11-2.06l11.46 5.63c2.58 1.27 2.59 1.17 2.24 3.75l-1.89 13.71c-.38 2.78-.44 3.18-3.26 3.7l-14.25 2.79c-4.41.91-4.94.33-4.95-3.31v-2.23c-.52-.68-2.33-.83-2.94-.1-.38 3.49-.78 7.89-1.37 12.16-.71 5.17-1.32 8.83-2.08 12.88.4.76 2.1 1 2.92.3l.5-1.45c1.7-4.93 2.37-5.34 9.39-6.7l43.9-8.53c4.72-.97 9.6-1.61 14.32-2.58.55-.33.92-.78 1.03-1.58.03-.2-3.62-4.04-3.84-7.62-1.74.06-4.01-1.26-7.04-2.89Zm-4.09 2.98c-.77.4-3.15.68-8.7 1.74l-12.58 2.52c-2.51.46-2.66.04-2.27-2.74l1.49-10.83c.33-2.38.36-2.58 3.12-1.19l11.09 6.08c4.47 2.34 7.23 3.73 7.88 4.22l-.03.2ZM822.59 524.47c-1.08.07-2.02 1.98-1.66 2.84 6.65 6.04 6.88 8.96 4.06 17.74l-1.72 5.35c-.8 2.48-1.02 2.52-5.06 1.22l-41.54-13.36c-10.19-3.28-10.01-4.17-9.15-8.84l.81-4.17c-.27-.82-2.22-1.35-2.85-.71-1.77 6.17-3.12 10.69-4.47 14.89-1.35 4.2-2.83 8.47-4.8 13.94.14.89 1.84 1.54 2.73 1.09l1.49-3.31c1.92-4.33 2.49-5.1 12.68-1.82l41.54 13.36c4.04 1.3 4.2 1.46 3.4 3.94l-1.75 5.44c-3.29 10.22-5.7 11.44-13.59 10.27-.95.64-1.28 2.33-.66 3.05 3.17.7 11.19 4.13 14.83 6.35.35-.1.7-.51.88-1.09.12-.38.05-.83-.02-1.27-1.84-1.86-1.67-3.38-.17-8.06l12.53-38.96c2.09-6.49 2.61-7.8 5.17-7.5.35-.1.57-.45.69-.83.15-.48.18-.89-.05-1.17-3.15-1.75-8.65-5.1-13.32-8.39ZM806.72 602.91l-1.35 1.77c-2.86 3.8-3.56 4.43-12.87-.85l-32.67-18.56c-9.31-5.29-9.12-6.22-7.41-10.67l.52-1.32c-.27-.96-1.9-1.77-2.65-1.27-1.71 3.41-3.85 7.39-6.03 11.22-2.18 3.84-4.5 7.71-7.25 12.15-.05.9 1.49 1.88 2.45 1.62l1.84-2.42c2.85-3.8 3.48-4.48 12.78.8l12.91 7.33c2.37 1.35 2.4 1.71-.13 6.16l-11.59 20.41c-2.53 4.45-2.85 4.61-5.22 3.26l-12.91-7.33c-9.31-5.29-9.13-6.22-7.32-10.62l.83-2.07c-.27-.96-1.9-1.77-2.65-1.27-2 3.94-4.14 7.91-6.42 11.92-2.18 3.84-4.5 7.71-6.85 11.45-.05.9 1.49 1.88 2.45 1.62l1.35-1.77c2.85-3.8 3.56-4.43 12.87.85l32.67 18.56c9.31 5.29 8.95 6.12 7.32 10.62l-.63 1.72c.09.86 1.9 1.77 2.65 1.27 1.81-3.59 3.95-7.56 6.13-11.4 2.18-3.84 4.5-7.71 6.95-11.62.04-.9-1.67-1.98-2.45-1.62l-1.35 1.77c-2.85 3.8-3.56 4.43-12.87-.85l-10.63-6.04c-2.46-1.4-2.49-1.76.04-6.21l11.59-20.41c2.53-4.45 2.85-4.61 5.31-3.21l10.62 6.04c9.31 5.29 8.95 6.12 7.33 10.62l-.58 1.63c.09.86 1.9 1.77 2.65 1.27 1.76-3.5 3.9-7.47 6.08-11.31 2.18-3.84 4.6-7.88 6.95-11.62.04-.9-1.67-1.98-2.45-1.62ZM756.46 684.19l-1.21 1.07c-3.58 3.13-4.48 3.54-12.5-3.55l-28.15-24.89c-8.02-7.09-7.65-7.97-4.91-11.83l2.15-3.05c-.06-.99-1.49-2.12-2.33-1.79-2.84 3.51-6.81 8.17-9.74 11.47l-7.57 8.57c-7.77 8.79-13.56 15.19-16.64 18.36 1.11 2.86 5.4 9.6 8.18 12.86 1.16.22 2.51-.86 2.58-2-3.8-8.05-4.46-11.58 4.05-21.05 5.66-6.25 7.31-7.05 9.17-7.02 2.28.01 5.14 2.27 9 5.68l9.61 8.5c1.89 1.67 1.98 1.88.45 3.61l-3.19 3.61c-5.78 6.54-7.06 7.68-10.7 5.4l-3.49-2.15c-.99.2-2.25 1.63-2.05 2.47 2.49 2.07 5.27 4.26 8.15 6.8 2.8 2.48 5.39 5.03 7.37 6.92.94.16 2.2-1.27 2.2-2.34l-2.11-2.8c-2.66-3.55-1.74-4.75 4.04-11.28l3.19-3.61c1.53-1.73 1.67-1.74 3.64 0l12.79 11.31c4.31 3.81 4.46 3.95 1.61 7.18l-4.45 5.03c-1.79 2.03-4.01 4.08-6 5.41-2.81 1.8-5.62 1.32-11.07-1.35-.98.2-2.16 1.83-1.82 2.67 3.65 2.43 10.03 7.26 11.58 8.1.71-1.11 4.49-5.54 8.74-10.34l12.69-14.35c2.92-3.31 6.12-6.77 8.8-9.49.23-.87-1.07-2.15-2.06-2.09ZM707.95 735.32l-2.24 1.36c-4.03 2.49-4.85 1.6-10.8-6.06l-22.68-29.19c-6.57-8.45-6.04-9.25-2.69-12.62l1.56-1.59c.28-1.11-1.07-2.36-1.96-2.19-3.52 2.99-7.02 5.84-10.5 8.55-3.48 2.71-7.11 5.4-10.72 7.95-.38.81.65 2.31 1.64 2.44l1.93-1.11c4.09-2.42 4.99-2.73 11.56 5.72l7.93 10.21c1.3 1.67 1.28 1.82-1.09 3.66-2.61 2.03-3.73 2.39-7.02 1.1-4.32-1.63-9.94-4.29-14.68-5.98-10.59-3.66-17.13-3.57-24.73 2.34-2.77 2.15-4.09 3.56-4.85 4.54.07.58.75 1.46 1.4 1.47 1.01-.66 3.68-1.96 7.38-1.77 6.14.22 15.37 3.92 30.07 9.76.69.23 1.34.75 1.05 1.36-2.64 4.61-5.41 12.65.29 19.98 4.46 5.74 10.3 7.21 16.02 6.23 4.97-.79 10.98-4.18 17.15-8.98 6.49-5.05 13.04-10.52 17.66-14.87.32-.89-.67-2.17-1.66-2.29Zm-19.43 14.72c-6.89 5.35-15.21 2.99-20.1-3.31-5.89-7.58-5.3-14.17 2.46-20.2 3.8-2.95 3.93-2.79 5.91-.24l12.89 16.59c2.85 3.67 2.96 3.97-1.16 7.17ZM631.28 764.28c-1.29-2.51-3-4.65-5.1-6.4-2.11-1.75-4.42-3.04-6.95-3.86-2.53-.82-5.15-1.13-7.88-.94-2.72.19-5.33.93-7.83 2.21-2.5 1.29-4.61 2.98-6.35 5.09-1.74 2.1-3 4.42-3.8 6.96-.8 2.53-1.1 5.17-.89 7.9.21 2.73.96 5.36 2.25 7.87s3 4.65 5.1 6.4c2.11 1.75 4.42 3.04 6.95 3.86 2.53.82 5.15 1.13 7.88.94 2.72-.19 5.33-.93 7.83-2.21 2.5-1.29 4.61-2.98 6.35-5.09 1.74-2.11 3-4.43 3.81-6.96.8-2.53 1.1-5.17.89-7.9-.21-2.74-.96-5.36-2.25-7.87ZM323.1 774.66c1.78-4.4 3.37-10.95 3.18-13.42-4.01-2.61-7.07-5.16-11.88-7.11-13.51-5.48-23.54-.4-27.3 8.87-3.42 8.42.37 16.61 5.71 23.36l3.07 3.86c5.34 6.75 6.09 12.07 3.93 17.4-2.32 5.71-8.04 8.4-15.07 5.54-9.07-3.68-10-15.72-9.73-21.17-.47-.96-2.08-1.5-3.02-.79-2.45 5.76-3.87 12.71-3 15.35 1.39 1.87 5.07 6.63 13.58 10.09 13.41 5.44 24.54 1.13 28.87-9.54 3.84-9.45-.47-17.96-5.19-23.58l-4.48-5.42c-4.78-5.75-5.75-11.05-4.15-14.98 2.01-4.96 7.04-8.59 14.44-5.58 7.86 3.19 8.56 10.78 7.97 16.21.57.99 2.27 1.57 3.07.92ZM382.8 777.9c-6.62-4.02-13.11-6.16-22.41-8.04-9.59-1.94-17.48-3.23-24.64-4.06-.88.34-1.24 2.12-.66 2.75l2.01.61c4.52 1.33 4.34 2.73 2.41 12.23l-7.33 36.23c-2.12 10.49-3.06 10.61-7.78 10.28l-2.21-.14c-.83.55-1.09 2.36-.38 2.91 4.34.67 8.77 1.46 12.48 2.22 3.62.73 8.1 2.26 14.07 3.46 8.9 1.8 17.56 2.32 25.23.16 13.39-3.78 21.06-13.98 23.28-24.97 2.98-14.75-3.21-26.93-14.07-33.66Zm.74 31.06c-3.38 16.73-13.73 27.62-31.15 24.1-10.37-2.1-10.01-7.39-8.07-16.99l7.05-34.85c.94-4.65 1.46-6.71 2.26-7.17.81-.46 4.1-.61 8.21.22 16.34 3.31 25.67 15.09 21.7 34.69ZM444.55 808.93c-.6-.2-.8-.41-.8-.61s.2-.5.6-.6c7-2.3 11.31-6.83 11.33-12.79.02-6.36-2.36-10.41-6.94-13.15-4.48-2.64-11.17-3.47-19.56-3.5-10.98-.04-18.27.44-22.77.83-.8.5-.81 2.12-.11 2.83l2.59.31c4.69.52 4.79 1.73 4.75 11.43l-.13 36.96c-.04 10.71-.94 11-5.63 11.59l-2.2.3c-.7.7-.61 2.52.19 2.93 4.39-.19 9.09-.27 13.48-.26 3.79.01 7.99.33 12.38.35 11.38.04 17.98-1.65 22.68-5.58 4.61-3.72 6.12-8.77 6.14-13.41.04-11.41-8.43-16.39-16.01-17.63Zm-19.29-22.39c.01-4.04.31-4.24 5.31-4.22 6.19.02 12.67 3.58 12.63 12.47-.03 9.09-4.34 12.81-13.72 12.78-3.99-.01-4.29-.12-4.28-2.74l.06-18.28Zm9.49 54.97c-8.69-.03-9.67-3.77-9.64-12.96l.05-14.54c0-2.02.21-2.63 4.6-2.61 11.08.04 18.05 6.22 18.01 16.63-.03 8.99-6.14 13.51-13.03 13.49ZM506.22 802.26c-.62-.1-.85-.27-.89-.47-.03-.2.12-.53.49-.7 6.52-3.42 10.02-8.6 9.06-14.48-1.03-6.28-4.04-9.88-9.02-11.83-4.86-1.87-11.59-1.58-19.87-.23-10.84 1.77-17.95 3.45-22.31 4.57-.71.63-.45 2.22.36 2.81l2.61-.12c4.71-.26 5.01.92 6.57 10.49l5.97 36.48c1.73 10.56.89 11.01-3.64 12.36l-2.12.65c-.58.81-.18 2.59.67 2.86 4.3-.91 8.92-1.77 13.25-2.47 3.74-.61 7.93-.99 12.26-1.7 11.23-1.84 17.46-4.6 21.45-9.24 3.93-4.43 4.59-9.66 3.84-14.24-1.84-11.26-11.02-14.78-18.7-14.75Zm-19.77-.86-2.95-18.04c-.65-3.99-.39-4.23 4.54-5.04 6.11-1 13.08 1.44 14.52 10.21 1.47 8.97-2.17 13.35-11.43 14.87-3.94.64-4.25.59-4.68-2Zm15.48 34.62c-8.57 1.4-10.16-2.13-11.64-11.2l-2.35-14.35c-.33-1.99-.23-2.62 4.11-3.33 10.94-1.79 18.83 3.16 20.51 13.43 1.45 8.87-3.83 14.34-10.62 15.45ZM586 800.79c-.93 11.33-2.27 12.34-12.74 15.97-7.54 2.62-9.32 2.38-10.91 1.44-1.98-1.13-3.36-4.5-5.01-9.27l-11.62-33.49c-3.44-9.92-2.66-10.41 1.51-12.71l1.94-1.1c.59-.74-.17-2.61-1.15-2.7-4.08 1.63-8.29 3.2-12.44 4.64-4.34 1.5-8.61 2.88-13.4 4.33-.72.68-.05 2.58.77 2.83l2.77-.54c4.66-.87 5.61-.88 9.06 9.04l12.32 35.49c3.44 9.92 2.63 10.31-1.54 12.62l-2.66 1.46c-.68.77.26 2.58 1.15 2.7 3.89-1.57 8.58-3.3 13.39-4.97l9.81-3.4c10.56-3.67 18.71-6.38 22.73-7.57.24-2.97-.21-10.94-.84-15.21-.74-.6-2.34-.36-3.12.44Z"/></svg>