<svg xmlns="http://www.w3.org/2000/svg" viewBox="0 0 32 32" fill="none" role="img" aria-label="Kink Social">
  <rect x="2.5" y="2.5" width="27" height="27" rx="7.5" fill="#e8d5a8" fill-opacity="0.12"/>
  <rect x="2.5" y="2.5" width="27" height="27" rx="7.5" stroke="#e8d5a8" stroke-width="1.25"/>
  <path
    fill="#e8d5a8"
    d="M10.5 21.5V10.5h1.65v4.95l4.25-4.95h2.05l-4.35 5.15 4.55 6.35h-2.1l-3.35-4.85v4.85H10.5zm7.35-11h1.9c2.65 0 4.15 1.4 4.15 3.45 0 1.35-.7 2.35-1.95 2.85 1.45.45 2.35 1.65 2.35 3.35 0 2.15-1.65 3.45-4.35 3.45h-1.9V10.5zm1.9 5.85c1.4 0 2.15-.65 2.15-1.65 0-1-.75-1.6-2.15-1.6h-1.65v3.25h1.65zm0 5.45c1.55 0 2.4-.75 2.4-1.85 0-1.15-.85-1.85-2.4-1.85h-1.65v3.7h1.65z"
  />
</svg>
